<svg xmlns="http://www.w3.org/2000/svg" width="72" height="72" viewBox="0 0 72 72" fill="none" style="width: 42px; height: 42px; margin: 16px">
                          <g clip-path="url(#clip0_3054_216)">
                            <mask id="mask0_3054_216" style="mask-type: luminance" maskUnits="userSpaceOnUse" x="0" y="0" width="72" height="72">
                              <path d="M71.3584 0.0800781H0.358398V71.0801H71.3584V0.0800781Z" fill="white"></path>
                            </mask>
                            <g mask="url(#mask0_3054_216)">
                              <path d="M23.5509 16.213H16.0409L13.4725 32.2262C13.4183 32.2333 13.3642 32.2368 13.3074 32.2439C7.63271 32.9983 3.22893 37.7757 3.27775 43.1167C3.29905 45.3505 4.06141 47.0953 5.42816 48.5251C6.66267 49.8173 8.34448 50.5184 10.0423 50.5184C10.7061 50.5184 11.3726 50.4119 12.0152 50.1909C15.0744 49.1375 16.0897 46.5708 16.5654 44.2216C16.5654 44.2234 16.5636 44.2269 16.5636 44.2305C16.7012 41.6079 15.2998 39.0173 12.6284 37.4846L11.7835 42.822C11.512 44.337 11.1587 45.2422 10.4026 45.5023C9.94997 45.6576 9.39262 45.497 9.01632 45.102C8.53086 44.5935 8.24686 44.0273 8.23798 43.0697C8.21225 40.4001 10.3121 38.3038 12.6293 37.4837C13.3571 37.221 14.1132 37.0985 14.959 37.0985C15.8048 37.0985 16.7198 37.2636 17.5452 37.5405C20.6745 38.2789 22.5711 41.5982 23.0406 45.1934L23.3157 47.2081H28.5227L23.5509 16.2139V16.213ZM18.2099 32.5696L19.7036 21.1102H19.8882L21.5549 33.8982C20.4961 33.3205 19.3699 32.8705 18.2099 32.5696ZM68.1673 47.2054H62.971V24.8573H68.1673V47.2054ZM52.9999 54.9471C59.8239 54.9471 60.3502 51.0572 60.3502 45.56L60.3955 24.859H57.7055C56.7372 24.859 55.5497 25.585 55.4681 26.5204L55.4051 27.2429L55.1539 26.5622C54.6525 25.2105 53.3904 24.4952 51.5045 24.4952C49.6186 24.4952 48.2101 25.2229 47.3448 26.6562C46.5034 28.0496 46.3277 29.853 46.3277 31.1195V39.809C46.3277 41.9647 46.6428 43.5516 47.2906 44.66C48.0779 46.0064 49.3523 46.6622 51.1894 46.6622C52.9272 46.6622 54.2407 45.9238 54.8894 44.5828L55.1992 43.9438V47.1424C55.1992 49.331 55.0634 50.8797 53.3168 50.8797C52.9165 50.8797 51.6154 50.7439 51.6154 48.9973V48.9342H46.3739V49.0425C46.3739 50.7403 46.8336 52.1071 47.7406 53.1019C48.8518 54.3258 50.6223 54.9462 53.0008 54.9462M55.1086 38.9064C55.1086 41.0373 54.8078 42.1919 53.2262 42.1919C51.7273 42.1919 51.5249 40.7604 51.5249 39.359V31.5747C51.5249 29.821 52.155 28.9682 53.4526 28.9682C54.9116 28.9682 55.1086 30.3997 55.1086 31.8011V38.9073V38.9064ZM68.4389 19.9432C68.4389 21.5265 67.1786 22.7672 65.5696 22.7672C63.9606 22.7672 62.7456 21.5274 62.7456 19.9432C62.7456 18.359 63.9854 17.0739 65.5696 17.0739C67.1538 17.0739 68.4389 18.3608 68.4389 19.9432ZM35.3777 32.0726V47.2081H30.1362L30.0909 24.8599H33.0046C34.0057 24.8599 35.1603 25.5655 35.2872 26.6172L35.3449 27.0991L35.589 26.6811C36.4339 25.2327 37.8024 24.4978 39.6581 24.4978C42.6428 24.4978 44.1578 26.4219 44.1578 30.2195V47.2098H38.9615V31.3937C38.9615 29.7847 38.4041 28.9682 37.3054 28.9682C35.8827 28.9682 35.3777 29.7811 35.3777 32.0726Z" fill="#787878"></path>
                              <path d="M16.5649 44.2296C16.8276 43.1096 17.4355 38.807 17.5438 37.5396C16.7202 37.2645 15.8149 37.0977 14.9576 37.0977C14.1003 37.0977 13.3557 37.2228 12.6279 37.4828C15.3011 39.0155 16.7024 41.6062 16.5649 44.2287" fill="#787878"></path>
                            </g>
                          </g>
                          <defs>
                            <clipPath id="clip0_3054_216">
                              <rect width="71" height="71" fill="white" transform="translate(0.358398 0.0800781)"></rect>
                            </clipPath>
                          </defs>
                        </svg>