<svg width="33" height="33" viewBox="0 0 33 33" fill="none" xmlns="http://www.w3.org/2000/svg">
<path d="M12.5 16.7201L15.1667 19.3867L21.1667 13.3867M10.2783 5.81165C11.3501 5.72612 12.3676 5.30466 13.1859 4.60728C15.0956 2.97987 17.9044 2.97987 19.814 4.60728C20.6324 5.30466 21.6499 5.72612 22.7216 5.81165C25.2227 6.01124 27.2088 7.99731 27.4084 10.4984C27.4939 11.5702 27.9154 12.5877 28.6128 13.406C30.2402 15.3157 30.2402 18.1244 28.6128 20.0341C27.9154 20.8524 27.4939 21.8699 27.4084 22.9417C27.2088 25.4428 25.2227 27.4289 22.7216 27.6285C21.6499 27.714 20.6324 28.1354 19.814 28.8328C17.9044 30.4602 15.0956 30.4602 13.1859 28.8328C12.3676 28.1354 11.3501 27.714 10.2783 27.6285C7.77725 27.4289 5.79117 25.4428 5.59158 22.9417C5.50606 21.8699 5.0846 20.8524 4.38722 20.0341C2.7598 18.1244 2.7598 15.3157 4.38722 13.406C5.0846 12.5877 5.50606 11.5702 5.59158 10.4984C5.79117 7.99731 7.77725 6.01124 10.2783 5.81165Z" stroke="url(#paint0_linear_14_1386)" stroke-width="2" stroke-linecap="round" stroke-linejoin="round"/>
<defs>
<linearGradient id="paint0_linear_14_1386" x1="15.5002" y1="-26.0911" x2="16.5946" y2="30.0515" gradientUnits="userSpaceOnUse">
<stop stop-color="white"/>
<stop offset="1" stop-color="#0095FF"/>
</linearGradient>
</defs>
</svg>
