<svg width="40" height="41" viewBox="0 0 40 41" fill="none" xmlns="http://www.w3.org/2000/svg">
<g id="flaticon_8426907 2" clip-path="url(#clip0_44_1399)">
<path id="Vector" fill-rule="evenodd" clip-rule="evenodd" d="M9.99998 6.13623C5.62773 6.13623 2.08331 9.68065 2.08331 14.0529V14.8862V27.3862C2.08331 31.7586 5.62773 35.3029 9.99998 35.3029H18.9778C20.996 38.3179 24.4328 40.3029 28.3333 40.3029C34.5465 40.3029 39.5833 35.2661 39.5833 29.0529C39.5833 26.8911 38.9735 24.8717 37.9166 23.1574V14.8862V14.0529C37.9166 9.68065 34.3723 6.13623 30 6.13623H9.99998ZM35.4166 20.3124V16.1362H4.58331V27.3862C4.58331 30.3777 7.00843 32.8029 9.99998 32.8029H17.7235C17.3088 31.6299 17.0833 30.3677 17.0833 29.0529C17.0833 22.8397 22.1201 17.8029 28.3333 17.8029C31.0178 17.8029 33.4828 18.7432 35.4166 20.3124ZM35.4008 13.6362H4.5991C4.81186 10.8394 7.14863 8.63623 9.99998 8.63623H30C32.8513 8.63623 35.1881 10.8394 35.4008 13.6362ZM19.5833 29.0529C19.5833 24.2204 23.5008 20.3029 28.3333 20.3029C33.1658 20.3029 37.0833 24.2204 37.0833 29.0529C37.0833 33.8854 33.1658 37.8029 28.3333 37.8029C23.5008 37.8029 19.5833 33.8854 19.5833 29.0529ZM33.3333 30.3029C34.0236 30.3029 34.5833 29.7432 34.5833 29.0529C34.5833 28.3626 34.0236 27.8029 33.3333 27.8029H29.5833V24.0529C29.5833 23.3626 29.0236 22.8029 28.3333 22.8029C27.643 22.8029 27.0833 23.3626 27.0833 24.0529V27.8029H23.3333C22.643 27.8029 22.0833 28.3626 22.0833 29.0529C22.0833 29.7432 22.643 30.3029 23.3333 30.3029H27.0833V34.0529C27.0833 34.7432 27.643 35.3029 28.3333 35.3029C29.0236 35.3029 29.5833 34.7432 29.5833 34.0529V30.3029H33.3333Z" fill="url(#paint0_linear_44_1399)"/>
</g>
<defs>
<linearGradient id="paint0_linear_44_1399" x1="19.4273" y1="-31.6322" x2="20.705" y2="40.3052" gradientUnits="userSpaceOnUse">
<stop stop-color="white"/>
<stop offset="1" stop-color="#0095FF"/>
</linearGradient>
<clipPath id="clip0_44_1399">
<rect width="40" height="40" fill="white" transform="translate(0 0.719727)"/>
</clipPath>
</defs>
</svg>
