<svg width="102" height="20" viewBox="0 0 102 20" fill="none" xmlns="http://www.w3.org/2000/svg">
<path fill-rule="evenodd" clip-rule="evenodd" d="M15.0623 6.49228H11.0612L10.703 9.90753H14.3641C16.6028 9.90753 16.7696 10.3156 16.7696 11.7083V12.2977H13.8104C10.9028 12.2977 9.27765 13.271 9.27765 15.9979C9.27765 18.3101 10.6704 19.9815 13.2879 19.9815C14.2465 19.9815 15.7005 19.8414 17.3306 18.9783L17.4845 19.8412H21.0526V11.7354C21.0524 7.97686 19.9751 6.49228 15.0623 6.49228ZM16.7696 16.5276C16.1318 16.8077 15.6152 17.0799 14.7413 17.0799C13.927 17.0799 13.5582 16.692 13.5582 15.9448C13.5582 15.1919 13.9552 15.0318 14.8594 15.0318H16.7698L16.7696 16.5276ZM102 6.49228H97.3593L93.4362 12.4395V0.342907L89.1556 1.02532V19.8157H93.4362V13.5538L97.3593 19.8157H102L97.7161 12.982L102 6.49228ZM67.9888 6.30883C62.9567 6.30883 61.7322 9.00961 61.7322 11.7945V14.4827C61.7322 17.2665 62.9565 19.9669 67.9888 19.9669C73.0178 19.9669 74.2203 17.2665 74.2203 14.4827V11.7945C74.2201 9.00961 73.0178 6.30883 67.9888 6.30883ZM69.9353 14.8789C69.9353 15.8274 69.4266 16.589 67.9743 16.589C66.5181 16.589 66.0137 15.8274 66.0137 14.8789V11.425C66.0137 10.4798 66.5179 9.71984 67.9743 9.71984C69.4266 9.71984 69.9353 10.4798 69.9353 11.425V14.8789ZM9.65617 6.49228H6.42044L6.42577 4.78284C6.42577 3.89256 6.51446 3.41526 7.85049 3.41526H9.63554V0H6.77857C3.34748 0 2.13985 1.65699 2.13985 4.44249V6.49228H0V9.90753H2.13985V19.8157H6.42044V9.90753H9.27742L9.65617 6.49228ZM22.48 11.9571V14.3492C22.48 17.6888 24.3061 20 28.9029 20C29.9737 20 31.2403 19.8904 33.1855 19.4728V16.1429C30.9649 16.5085 30.3276 16.589 29.2592 16.589C27.34 16.589 26.7604 16.1832 26.7604 14.6246V11.6762C26.7604 10.1192 27.34 9.71347 29.2592 9.71347C30.3276 9.71347 30.9649 9.79394 33.1855 10.1579V6.82839C31.2403 6.41053 29.9735 6.29991 28.9029 6.29991C24.3063 6.29991 22.48 8.61532 22.48 11.9571ZM55.5069 6.29991C54.4172 6.29991 53.22 6.46637 52.2951 6.79548V0.342907L48.0154 1.02532V19.4728C50.3444 19.8157 51.5838 19.9936 53.6926 19.9936C59.5365 19.9936 60.5006 17.6396 60.5006 14.412V11.0836C60.5004 8.13525 59.7881 6.29991 55.5069 6.29991ZM56.22 14.44C56.22 15.7208 55.9333 16.6393 53.8371 16.6393C53.2562 16.6393 52.9074 16.6393 52.2951 16.5822V10.2717C52.9333 9.9931 53.5622 9.71941 54.4356 9.71941C55.8921 9.71941 56.22 10.4793 56.22 11.4246V14.44ZM81.6982 6.30883C76.6661 6.30883 75.441 9.00961 75.441 11.7945V14.4827C75.441 17.2665 76.6659 19.9669 81.6982 19.9669C86.7257 19.9669 87.9289 17.2665 87.9289 14.4827V11.7945C87.9289 9.00961 86.7257 6.30883 81.6982 6.30883ZM83.6489 14.8789C83.6489 15.8274 83.1354 16.589 81.6832 16.589C80.2294 16.589 79.7249 15.8274 79.7249 14.8789V11.425C79.7249 10.4798 80.2294 9.71984 81.6832 9.71984C83.1354 9.71984 83.6489 10.4798 83.6489 11.425V14.8789ZM40.5184 6.29991C35.8089 6.29991 34.4518 8.69324 34.4518 11.6142V14.3492C34.4518 17.6888 36.2797 20 40.8765 20C42.9747 20 44.0878 19.8904 46.225 19.4728V16.1429C44.0091 16.5085 42.9567 16.589 41.2313 16.589C39.313 16.589 38.7329 16.1832 38.7329 14.6246V14.3492H46.5831V11.6142C46.5834 8.665 45.2292 6.29991 40.5184 6.29991ZM42.3026 11.6142H38.7329V11.0836C38.7329 10.1385 39.0642 9.37523 40.5184 9.37523C41.9708 9.37523 42.3026 10.1385 42.3026 11.0836V11.6142Z" fill="#1877F2"/>
</svg>
