<svg width="168" height="57" viewBox="0 0 168 57" fill="none" xmlns="http://www.w3.org/2000/svg">
<mask id="path-1-outside-1_157_839" maskUnits="userSpaceOnUse" x="50.1412" y="5.34058" width="116" height="43" fill="black">
<rect fill="white" x="50.1412" y="5.34058" width="116" height="43"/>
<path fill-rule="evenodd" clip-rule="evenodd" d="M138.357 6.34058H133.142V46.3588H138.357V6.34058ZM78.2003 29.5436C77.1675 31.2769 76.651 33.2258 76.651 35.3888C76.651 37.724 77.1762 39.7583 78.2264 41.4916C79.2753 43.2263 80.7041 44.556 82.5116 45.4834C84.3192 46.4108 86.3588 46.8738 88.6305 46.8738C91.04 46.8738 93.1318 46.3674 94.9045 45.3546C96.6772 44.3419 98.0626 42.9688 99.0621 41.234C100.06 39.5007 100.559 37.5518 100.559 35.3888C100.559 33.2258 100.067 31.2783 99.0868 29.5436C98.1047 27.8102 96.728 26.4459 94.9553 25.449C93.1826 24.4536 91.0748 23.9559 88.7335 23.9559C86.3921 23.9559 84.3105 24.4536 82.4855 25.449C80.6606 26.4459 79.2332 27.8102 78.2003 29.5436ZM82.796 39.0725C82.2099 37.9902 81.9183 36.7807 81.9183 35.4409H81.9198C81.9198 34.1358 82.2114 32.935 82.7974 31.8354C83.382 30.7372 84.1726 29.8619 85.1721 29.2093C86.1702 28.5583 87.306 28.2313 88.5797 28.2313C90.541 28.2313 92.1498 28.9272 93.4075 30.3176C94.6637 31.708 95.2919 33.4168 95.2919 35.4423C95.2919 37.4679 94.6637 39.1679 93.4075 40.541C92.1512 41.9155 90.5424 42.6013 88.5797 42.6013C87.3394 42.6013 86.2123 42.283 85.1968 41.6478C84.1813 41.0127 83.3806 40.1547 82.796 39.0725ZM51.1412 24.8312L63.2758 46.9765H63.5341L75.1523 24.8312H69.3686L63.5849 38.0048L57.2861 24.8312H51.1412ZM103.967 35.3888C103.967 33.2258 104.483 31.2769 105.516 29.5436C106.549 27.8102 107.976 26.4459 109.801 25.449C111.626 24.4536 113.708 23.9559 116.049 23.9559C118.391 23.9559 120.498 24.4536 122.271 25.449C124.044 26.4459 125.42 27.8102 126.403 29.5436C127.383 31.2783 127.875 33.2258 127.875 35.3888C127.875 37.5518 127.376 39.5007 126.378 41.234C125.378 42.9688 123.993 44.3419 122.22 45.3546C120.448 46.3674 118.356 46.8738 115.946 46.8738C113.675 46.8738 111.635 46.4108 109.827 45.4834C108.02 44.556 106.591 43.2263 105.542 41.4916C104.492 39.7583 103.967 37.724 103.967 35.3888ZM109.234 35.4409C109.234 36.7807 109.526 37.9902 110.112 39.0725C110.696 40.1547 111.497 41.0127 112.513 41.6478C113.528 42.283 114.655 42.6013 115.894 42.6013C117.857 42.6013 119.466 41.9155 120.722 40.541C121.978 39.1679 122.606 37.4679 122.606 35.4423C122.606 33.4168 121.978 31.708 120.722 30.3176C119.464 28.9272 117.855 28.2313 115.894 28.2313C114.62 28.2313 113.485 28.5583 112.486 29.2093C111.487 29.8619 110.696 30.7372 110.112 31.8354C109.526 32.935 109.234 34.1358 109.234 35.4409ZM147.548 15.405H152.815V24.8818H158.599V28.9504H152.815V46.3587H147.548V28.9504H143.727V24.8818H147.548V15.405ZM162.498 39.9122C164.172 40.3062 165.209 41.9793 164.814 43.649C164.419 45.3187 162.741 46.3529 161.067 45.9588C159.393 45.5647 158.356 43.8916 158.752 42.2219C159.147 40.5522 160.824 39.5181 162.498 39.9122Z"/>
</mask>
<path fill-rule="evenodd" clip-rule="evenodd" d="M138.357 6.34058H133.142V46.3588H138.357V6.34058ZM78.2003 29.5436C77.1675 31.2769 76.651 33.2258 76.651 35.3888C76.651 37.724 77.1762 39.7583 78.2264 41.4916C79.2753 43.2263 80.7041 44.556 82.5116 45.4834C84.3192 46.4108 86.3588 46.8738 88.6305 46.8738C91.04 46.8738 93.1318 46.3674 94.9045 45.3546C96.6772 44.3419 98.0626 42.9688 99.0621 41.234C100.06 39.5007 100.559 37.5518 100.559 35.3888C100.559 33.2258 100.067 31.2783 99.0868 29.5436C98.1047 27.8102 96.728 26.4459 94.9553 25.449C93.1826 24.4536 91.0748 23.9559 88.7335 23.9559C86.3921 23.9559 84.3105 24.4536 82.4855 25.449C80.6606 26.4459 79.2332 27.8102 78.2003 29.5436ZM82.796 39.0725C82.2099 37.9902 81.9183 36.7807 81.9183 35.4409H81.9198C81.9198 34.1358 82.2114 32.935 82.7974 31.8354C83.382 30.7372 84.1726 29.8619 85.1721 29.2093C86.1702 28.5583 87.306 28.2313 88.5797 28.2313C90.541 28.2313 92.1498 28.9272 93.4075 30.3176C94.6637 31.708 95.2919 33.4168 95.2919 35.4423C95.2919 37.4679 94.6637 39.1679 93.4075 40.541C92.1512 41.9155 90.5424 42.6013 88.5797 42.6013C87.3394 42.6013 86.2123 42.283 85.1968 41.6478C84.1813 41.0127 83.3806 40.1547 82.796 39.0725ZM51.1412 24.8312L63.2758 46.9765H63.5341L75.1523 24.8312H69.3686L63.5849 38.0048L57.2861 24.8312H51.1412ZM103.967 35.3888C103.967 33.2258 104.483 31.2769 105.516 29.5436C106.549 27.8102 107.976 26.4459 109.801 25.449C111.626 24.4536 113.708 23.9559 116.049 23.9559C118.391 23.9559 120.498 24.4536 122.271 25.449C124.044 26.4459 125.42 27.8102 126.403 29.5436C127.383 31.2783 127.875 33.2258 127.875 35.3888C127.875 37.5518 127.376 39.5007 126.378 41.234C125.378 42.9688 123.993 44.3419 122.22 45.3546C120.448 46.3674 118.356 46.8738 115.946 46.8738C113.675 46.8738 111.635 46.4108 109.827 45.4834C108.02 44.556 106.591 43.2263 105.542 41.4916C104.492 39.7583 103.967 37.724 103.967 35.3888ZM109.234 35.4409C109.234 36.7807 109.526 37.9902 110.112 39.0725C110.696 40.1547 111.497 41.0127 112.513 41.6478C113.528 42.283 114.655 42.6013 115.894 42.6013C117.857 42.6013 119.466 41.9155 120.722 40.541C121.978 39.1679 122.606 37.4679 122.606 35.4423C122.606 33.4168 121.978 31.708 120.722 30.3176C119.464 28.9272 117.855 28.2313 115.894 28.2313C114.62 28.2313 113.485 28.5583 112.486 29.2093C111.487 29.8619 110.696 30.7372 110.112 31.8354C109.526 32.935 109.234 34.1358 109.234 35.4409ZM147.548 15.405H152.815V24.8818H158.599V28.9504H152.815V46.3587H147.548V28.9504H143.727V24.8818H147.548V15.405ZM162.498 39.9122C164.172 40.3062 165.209 41.9793 164.814 43.649C164.419 45.3187 162.741 46.3529 161.067 45.9588C159.393 45.5647 158.356 43.8916 158.752 42.2219C159.147 40.5522 160.824 39.5181 162.498 39.9122Z" fill="#202122"/>
<path d="M133.142 6.34058V5.83149H132.633V6.34058H133.142ZM138.357 6.34058H138.866V5.83149H138.357V6.34058ZM133.142 46.3588H132.633V46.8679H133.142V46.3588ZM138.357 46.3588V46.8679H138.866V46.3588H138.357ZM78.2264 41.4916L78.6621 41.2282L78.6618 41.2278L78.2264 41.4916ZM82.5116 45.4834L82.7441 45.0305L82.5116 45.4834ZM94.9045 45.3546L94.652 44.9126L94.652 44.9126L94.9045 45.3546ZM99.0621 41.234L99.5032 41.4882L99.5033 41.4881L99.0621 41.234ZM99.0868 29.5436L99.5299 29.293L99.5297 29.2926L99.0868 29.5436ZM94.9553 25.449L95.2049 25.0053L95.2046 25.0051L94.9553 25.449ZM82.4855 25.449L82.2418 25.0021L82.2415 25.0022L82.4855 25.449ZM81.9183 35.4409V34.9318H81.4092V35.4409H81.9183ZM82.796 39.0725L83.2439 38.8305L83.2436 38.83L82.796 39.0725ZM81.9198 35.4409V35.95H82.4289V35.4409H81.9198ZM82.7974 31.8354L83.2467 32.0748L83.2468 32.0746L82.7974 31.8354ZM85.1721 29.2093L84.894 28.7829L84.8938 28.783L85.1721 29.2093ZM93.4075 30.3176L93.7852 29.9763L93.785 29.9761L93.4075 30.3176ZM93.4075 40.541L93.0319 40.1973L93.0317 40.1975L93.4075 40.541ZM85.1968 41.6478L84.9268 42.0794V42.0794L85.1968 41.6478ZM63.2758 46.9765L62.8294 47.2212L62.9743 47.4856H63.2758V46.9765ZM51.1412 24.8312V24.3221H50.2817L50.6947 25.0758L51.1412 24.8312ZM63.5341 46.9765V47.4856H63.8419L63.9849 47.213L63.5341 46.9765ZM75.1523 24.8312L75.6031 25.0677L75.9943 24.3221H75.1523V24.8312ZM69.3686 24.8312V24.3221H69.0361L68.9024 24.6265L69.3686 24.8312ZM63.5849 38.0048L63.1256 38.2244L63.6046 39.2263L64.051 38.2095L63.5849 38.0048ZM57.2861 24.8312L57.7454 24.6116L57.607 24.3221H57.2861V24.8312ZM109.801 25.449L109.558 25.0021L109.557 25.0022L109.801 25.449ZM122.271 25.449L122.521 25.0053L122.52 25.0051L122.271 25.449ZM126.403 29.5436L126.846 29.293L126.845 29.2926L126.403 29.5436ZM126.378 41.234L126.819 41.4882L126.819 41.4881L126.378 41.234ZM122.22 45.3546L121.968 44.9126V44.9126L122.22 45.3546ZM109.827 45.4834L110.06 45.0305L109.827 45.4834ZM105.542 41.4916L105.978 41.2282L105.978 41.2278L105.542 41.4916ZM110.112 39.0725L110.56 38.8305L110.559 38.83L110.112 39.0725ZM120.722 40.541L120.346 40.1973L120.346 40.1975L120.722 40.541ZM120.722 30.3176L121.1 29.9763L121.099 29.9761L120.722 30.3176ZM112.486 29.2093L112.208 28.7829L112.208 28.783L112.486 29.2093ZM110.112 31.8354L110.561 32.0748L110.561 32.0746L110.112 31.8354ZM152.815 15.405H153.325V14.8959H152.815V15.405ZM147.548 15.405V14.8959H147.039V15.405H147.548ZM152.815 24.8818H152.306V25.3909H152.815V24.8818ZM158.599 24.8818H159.108V24.3727H158.599V24.8818ZM158.599 28.9504V29.4594H159.108V28.9504H158.599ZM152.815 28.9504V28.4413H152.306V28.9504H152.815ZM152.815 46.3587V46.8678H153.325V46.3587H152.815ZM147.548 46.3587H147.039V46.8678H147.548V46.3587ZM147.548 28.9504H148.057V28.4413H147.548V28.9504ZM143.727 28.9504H143.218V29.4594H143.727V28.9504ZM143.727 24.8818V24.3727H143.218V24.8818H143.727ZM147.548 24.8818V25.3909H148.057V24.8818H147.548ZM162.498 39.9122L162.382 40.4077H162.382L162.498 39.9122ZM161.067 45.9588L161.184 45.4632L161.067 45.9588ZM158.752 42.2219L158.256 42.1047L158.752 42.2219ZM133.142 6.84967H138.357V5.83149H133.142V6.84967ZM133.651 46.3588V6.34058H132.633V46.3588H133.651ZM138.357 45.8497H133.142V46.8679H138.357V45.8497ZM137.848 6.34058V46.3588H138.866V6.34058H137.848ZM77.1601 35.3888C77.1601 33.3106 77.6552 31.4529 78.6377 29.8042L77.763 29.283C76.6798 31.1008 76.1419 33.1409 76.1419 35.3888H77.1601ZM78.6618 41.2278C77.6667 39.5855 77.1601 37.6454 77.1601 35.3888H76.1419C76.1419 37.8026 76.6856 39.931 77.791 41.7554L78.6618 41.2278ZM82.7441 45.0305C81.0201 44.1459 79.6618 42.8817 78.6621 41.2282L77.7908 41.755C78.8887 43.571 80.3882 44.966 82.2792 45.9364L82.7441 45.0305ZM88.6305 46.3647C86.4298 46.3647 84.4714 45.9168 82.7441 45.0305L82.2792 45.9364C84.1669 46.9049 86.2877 47.3829 88.6305 47.3829V46.3647ZM94.652 44.9126C92.9691 45.8741 90.9675 46.3647 88.6305 46.3647V47.3829C91.1125 47.3829 93.2946 46.8607 95.1571 45.7967L94.652 44.9126ZM98.621 40.9799C97.6675 42.6348 96.3479 43.9437 94.652 44.9126L95.1571 45.7967C97.0066 44.74 98.4577 43.3028 99.5032 41.4882L98.621 40.9799ZM100.05 35.3888C100.05 37.4702 99.5709 39.3302 98.6209 40.98L99.5033 41.4881C100.549 39.6712 101.068 37.6335 101.068 35.3888H100.05ZM98.6436 29.7941C99.5775 31.4462 100.05 33.3062 100.05 35.3888H101.068C101.068 33.1454 100.557 31.1104 99.5299 29.293L98.6436 29.7941ZM94.7058 25.8927C96.3994 26.8452 97.7084 28.1436 98.6438 29.7945L99.5297 29.2926C98.5009 27.4769 97.0566 26.0466 95.2049 25.0053L94.7058 25.8927ZM88.7335 24.4649C91.003 24.4649 93.0219 24.9472 94.7061 25.8929L95.2046 25.0051C93.3433 23.9599 91.1466 23.4468 88.7335 23.4468V24.4649ZM82.7293 25.8959C84.4705 24.9462 86.4664 24.4649 88.7335 24.4649V23.4468C86.3178 23.4468 84.1504 23.9609 82.2418 25.0021L82.7293 25.8959ZM78.6377 29.8042C79.6225 28.1515 80.9821 26.8503 82.7296 25.8958L82.2415 25.0022C80.3391 26.0414 78.8439 27.469 77.763 29.283L78.6377 29.8042ZM81.4092 35.4409C81.4092 36.8573 81.7183 38.1515 82.3483 39.3149L83.2436 38.83C82.7015 37.829 82.4274 36.704 82.4274 35.4409H81.4092ZM81.9198 34.9318H81.9183V35.95H81.9198V34.9318ZM82.3482 31.5959C81.7208 32.773 81.4107 34.0567 81.4107 35.4409H82.4289C82.4289 34.2149 82.7019 33.0969 83.2467 32.0748L82.3482 31.5959ZM84.8938 28.783C83.8191 29.4847 82.9711 30.4258 82.348 31.5961L83.2468 32.0746C83.793 31.0486 84.5262 30.239 85.4504 29.6356L84.8938 28.783ZM88.5797 27.7222C87.214 27.7222 85.9802 28.0744 84.894 28.7829L85.4503 29.6357C86.3602 29.0422 87.3981 28.7404 88.5797 28.7404V27.7222ZM93.785 29.9761C92.426 28.4737 90.6776 27.7222 88.5797 27.7222V28.7404C90.4044 28.7404 91.8735 29.3807 93.0299 30.6591L93.785 29.9761ZM95.801 35.4423C95.801 33.3018 95.1332 31.4683 93.7852 29.9763L93.0297 30.6589C94.1943 31.9478 94.7828 33.5317 94.7828 35.4423H95.801ZM93.7831 40.8847C95.1331 39.4091 95.801 37.5828 95.801 35.4423H94.7828C94.7828 37.353 94.1943 38.9268 93.0319 40.1973L93.7831 40.8847ZM88.5797 43.1104C90.6765 43.1104 92.4247 42.3709 93.7832 40.8845L93.0317 40.1975C91.8777 41.4601 90.4084 42.0922 88.5797 42.0922V43.1104ZM84.9268 42.0794C86.026 42.767 87.2472 43.1104 88.5797 43.1104V42.0922C87.4316 42.0922 86.3985 41.799 85.4668 41.2162L84.9268 42.0794ZM82.3481 39.3144C82.9735 40.4723 83.8348 41.3964 84.9268 42.0794L85.4668 41.2162C84.5279 40.6289 83.7876 39.8371 83.2439 38.8305L82.3481 39.3144ZM63.7223 46.7319L51.5876 24.5865L50.6947 25.0758L62.8294 47.2212L63.7223 46.7319ZM63.5341 46.4674H63.2758V47.4856H63.5341V46.4674ZM74.7015 24.5947L63.0832 46.74L63.9849 47.213L75.6031 25.0677L74.7015 24.5947ZM69.3686 25.3403H75.1523V24.3221H69.3686V25.3403ZM64.051 38.2095L69.8347 25.0358L68.9024 24.6265L63.1187 37.8002L64.051 38.2095ZM56.8268 25.0508L63.1256 38.2244L64.0442 37.7852L57.7454 24.6116L56.8268 25.0508ZM51.1412 25.3403H57.2861V24.3221H51.1412V25.3403ZM105.079 29.283C103.996 31.1008 103.458 33.1409 103.458 35.3888H104.476C104.476 33.3106 104.971 31.4529 105.953 29.8042L105.079 29.283ZM109.557 25.0022C107.655 26.0414 106.16 27.469 105.079 29.283L105.953 29.8042C106.938 28.1515 108.298 26.8503 110.045 25.8958L109.557 25.0022ZM116.049 23.4468C113.634 23.4468 111.466 23.9609 109.558 25.0021L110.045 25.8959C111.786 24.9462 113.782 24.4649 116.049 24.4649V23.4468ZM122.52 25.0051C120.659 23.9599 118.462 23.4468 116.049 23.4468V24.4649C118.319 24.4649 120.338 24.9472 122.022 25.8929L122.52 25.0051ZM126.845 29.2926C125.817 27.4769 124.372 26.0466 122.521 25.0053L122.022 25.8927C123.715 26.8452 125.024 28.1436 125.96 29.7945L126.845 29.2926ZM128.384 35.3888C128.384 33.1454 127.873 31.1104 126.846 29.293L125.959 29.7941C126.893 31.4462 127.366 33.3062 127.366 35.3888H128.384ZM126.819 41.4881C127.865 39.6712 128.384 37.6335 128.384 35.3888H127.366C127.366 37.4702 126.887 39.3302 125.937 40.98L126.819 41.4881ZM122.473 45.7967C124.322 44.74 125.773 43.3028 126.819 41.4882L125.937 40.9799C124.983 42.6348 123.664 43.9437 121.968 44.9126L122.473 45.7967ZM115.946 47.3829C118.428 47.3829 120.61 46.8607 122.473 45.7967L121.968 44.9126C120.285 45.8741 118.283 46.3647 115.946 46.3647V47.3829ZM109.595 45.9364C111.483 46.9049 113.604 47.3829 115.946 47.3829V46.3647C113.746 46.3647 111.787 45.9168 110.06 45.0305L109.595 45.9364ZM105.107 41.755C106.204 43.571 107.704 44.966 109.595 45.9364L110.06 45.0305C108.336 44.1459 106.978 42.8817 105.978 41.2282L105.107 41.755ZM103.458 35.3888C103.458 37.8026 104.001 39.931 105.107 41.7554L105.978 41.2278C104.983 39.5855 104.476 37.6454 104.476 35.3888H103.458ZM110.559 38.83C110.017 37.829 109.743 36.704 109.743 35.4409H108.725C108.725 36.8573 109.034 38.1515 109.664 39.3149L110.559 38.83ZM112.783 41.2162C111.844 40.6289 111.103 39.8371 110.56 38.8305L109.664 39.3144C110.289 40.4723 111.151 41.3964 112.243 42.0794L112.783 41.2162ZM115.894 42.0922C114.747 42.0922 113.714 41.7991 112.783 41.2162L112.243 42.0794C113.342 42.7669 114.563 43.1104 115.894 43.1104V42.0922ZM120.346 40.1975C119.192 41.4601 117.723 42.0922 115.894 42.0922V43.1104C117.991 43.1104 119.739 42.3709 121.098 40.8845L120.346 40.1975ZM122.097 35.4423C122.097 37.353 121.509 38.9268 120.346 40.1973L121.097 40.8847C122.447 39.4091 123.115 37.5828 123.115 35.4423H122.097ZM120.344 30.6589C121.509 31.9478 122.097 33.5317 122.097 35.4423H123.115C123.115 33.3018 122.448 31.4683 121.1 29.9763L120.344 30.6589ZM115.894 28.7404C117.719 28.7404 119.188 29.3807 120.344 30.6591L121.099 29.9761C119.74 28.4737 117.992 27.7222 115.894 27.7222V28.7404ZM112.765 29.6357C113.675 29.0422 114.712 28.7404 115.894 28.7404V27.7222C114.528 27.7222 113.295 28.0744 112.208 28.7829L112.765 29.6357ZM110.561 32.0746C111.107 31.0486 111.841 30.239 112.765 29.6356L112.208 28.783C111.133 29.4847 110.285 30.4258 109.662 31.5961L110.561 32.0746ZM109.743 35.4409C109.743 34.2149 110.016 33.0969 110.561 32.0748L109.662 31.5959C109.035 32.773 108.725 34.0567 108.725 35.4409H109.743ZM152.815 14.8959H147.548V15.9141H152.815V14.8959ZM153.325 24.8818V15.405H152.306V24.8818H153.325ZM158.599 24.3727H152.815V25.3909H158.599V24.3727ZM159.108 28.9504V24.8818H158.09V28.9504H159.108ZM152.815 29.4594H158.599V28.4413H152.815V29.4594ZM153.325 46.3587V28.9504H152.306V46.3587H153.325ZM147.548 46.8678H152.815V45.8497H147.548V46.8678ZM147.039 28.9504V46.3587H148.057V28.9504H147.039ZM143.727 29.4594H147.548V28.4413H143.727V29.4594ZM143.218 24.8818V28.9504H144.236V24.8818H143.218ZM147.548 24.3727H143.727V25.3909H147.548V24.3727ZM147.039 15.405V24.8818H148.057V15.405H147.039ZM165.309 43.7663C165.77 41.8216 164.562 39.8749 162.615 39.4166L162.382 40.4077C163.783 40.7376 164.649 42.137 164.319 43.5318L165.309 43.7663ZM160.951 46.4543C162.897 46.9125 164.849 45.7104 165.309 43.7663L164.319 43.5318C163.988 44.927 162.586 45.7932 161.184 45.4632L160.951 46.4543ZM158.256 42.1047C157.796 44.0493 159.004 45.996 160.951 46.4543L161.184 45.4632C159.783 45.1334 158.917 43.7339 159.247 42.3391L158.256 42.1047ZM162.615 39.4166C160.668 38.9584 158.716 40.1605 158.256 42.1047L159.247 42.3391C159.577 40.9439 160.98 40.0777 162.382 40.4077L162.615 39.4166Z" fill="#202122" mask="url(#path-1-outside-1_157_839)"/>
<path d="M32.1735 4.44316L32.4863 3.87673H31.8392H27.3669H27.1416L27.0327 4.0739L25.192 7.40557H1.55115H0.888951L1.2207 7.97867L20.5709 41.4065L20.8986 41.9726L21.2304 41.4089L35.1 17.8485L35.4388 17.273H34.771H25.0866L32.1735 4.44316ZM17.8115 21.9431H27.2605L20.9317 32.6941L8.99799 12.0757H22.6145L17.4772 21.3767L17.1644 21.9431H17.8115Z" fill="#FFD20A" stroke="#FFD20A" stroke-width="0.763636"/>
<path d="M22.8613 44.961L22.7505 45.1523L22.8613 45.3436L25.1228 49.25L25.4533 49.8209L25.7837 49.25L49.6744 7.97888L50.0062 7.40578H49.344H33.2998H33.0741L32.9653 7.60351L30.8155 11.51L30.504 12.0759H31.15H41.8971L22.8613 44.961Z" fill="#202122" stroke="#202122" stroke-width="0.763636"/>
</svg>
