<svg width="90" height="29" viewBox="0 0 90 29" fill="none" xmlns="http://www.w3.org/2000/svg">
<path fill-rule="evenodd" clip-rule="evenodd" d="M22.127 10.2414H11.6255V13.3039H19.0737C18.7056 17.5985 15.0697 19.43 11.6381 19.43C7.24746 19.43 3.41613 16.0351 3.41613 11.2765C3.41613 6.64088 7.06852 3.07116 11.6476 3.07116C15.1808 3.07116 17.2628 5.28444 17.2628 5.28444L19.4442 3.06391C19.4442 3.06391 16.644 1.65938e-08 11.5362 1.65938e-08C5.03227 -0.000345485 0 5.39466 0 11.2219C0 16.9316 4.73309 22.4997 11.7021 22.4997C17.8309 22.4994 22.3172 18.3734 22.3172 12.2719C22.3172 10.9845 22.127 10.2407 22.127 10.2407V10.2414Z" fill="#176BEF"/>
<path fill-rule="evenodd" clip-rule="evenodd" d="M30.7726 10.8643C32.8919 10.8643 34.9 12.5479 34.9 15.2608C34.9 17.9167 32.9003 19.648 30.7631 19.648C28.4147 19.648 26.5616 17.7999 26.5616 15.2401C26.5616 12.7348 28.3912 10.8643 30.7726 10.8643ZM30.7297 8.02393C26.4206 8.02393 23.3325 11.3345 23.3325 15.1962C23.3325 19.1142 26.3282 22.4866 30.7804 22.4866C34.811 22.4866 38.1136 19.459 38.1136 15.2801C38.1136 10.4905 34.2721 8.02393 30.7297 8.02393Z" fill="#FF3E30"/>
<path fill-rule="evenodd" clip-rule="evenodd" d="M46.8604 10.8643C48.98 10.8643 50.9881 12.5479 50.9881 15.2608C50.9881 17.9167 48.9881 19.648 46.8509 19.648C44.5028 19.648 42.6501 17.7999 42.6501 15.2401C42.6501 12.7348 44.4796 10.8643 46.8604 10.8643ZM46.8179 8.02393C42.5091 8.02393 39.4207 11.3345 39.4207 15.1962C39.4207 19.1142 42.416 22.4866 46.8685 22.4866C50.8992 22.4866 54.2014 19.459 54.2014 15.2801C54.2014 10.4905 50.3602 8.02393 46.8179 8.02393Z" fill="#F7B529"/>
<path fill-rule="evenodd" clip-rule="evenodd" d="M62.8843 10.8661C64.8235 10.8661 66.8147 12.4931 66.8147 15.2719C66.8147 18.0967 64.8274 19.6536 62.8414 19.6536C60.7331 19.6536 58.771 17.971 58.771 15.2989C58.771 12.5224 60.8086 10.8661 62.8843 10.8661ZM62.5977 8.03125C58.6427 8.03125 55.5334 11.4358 55.5334 15.2571C55.5334 19.6093 59.138 22.496 62.5295 22.496C64.627 22.496 65.7421 21.6779 66.5658 20.7391V22.1647C66.5658 24.6599 65.0239 26.1542 62.6972 26.1542C60.4497 26.1538 59.3226 24.5117 58.9309 23.5795L56.1026 24.7414C57.106 26.8258 59.1257 29.0001 62.7208 29.0001C66.6534 29.0001 69.6504 26.5657 69.6504 21.4605V8.46589H66.5658V9.69104C65.6173 8.68632 64.3197 8.03125 62.5977 8.03125Z" fill="#176BEF"/>
<path fill-rule="evenodd" clip-rule="evenodd" d="M83.4969 10.7953C84.8412 10.7953 85.8087 11.4974 86.2197 12.3397L79.6307 15.0464C79.3467 12.9509 81.3667 10.7953 83.4969 10.7953ZM83.3682 8.01367C79.6371 8.01367 76.5046 10.9311 76.5046 15.2357C76.5046 19.7908 79.9964 22.4923 83.7264 22.4923C86.8399 22.4923 88.7506 20.8183 89.8914 19.3185L87.3472 17.6552C86.6873 18.662 85.5837 19.6457 83.7423 19.6457C81.674 19.6457 80.7227 18.5325 80.1331 17.4545L90.0001 13.4308L89.4878 12.2516C88.5344 9.94261 86.3108 8.01402 83.3685 8.01402L83.3682 8.01367Z" fill="#FF3E30"/>
<path fill-rule="evenodd" clip-rule="evenodd" d="M71.8005 22.0626H75.0416V0.747559H71.8005V22.0626Z" fill="#179C52"/>
</svg>
