<svg width="207" height="127" viewBox="0 0 207 127" fill="none" xmlns="http://www.w3.org/2000/svg">
<g id="Frame 39936">
<rect x="1" y="0.760742" width="205" height="125" rx="9.5" fill="white"/>
<rect x="1" y="0.760742" width="205" height="125" rx="9.5" stroke="#0A2730"/>
<path id="Vector" d="M40.9943 104.514C39.8965 103.877 39.0292 103.01 38.3787 101.898C37.7281 100.787 37.4164 99.5537 37.4164 98.212C37.4164 96.8703 37.7417 95.637 38.3787 94.5257C39.0156 93.4144 39.8965 92.547 40.9943 91.91C42.0921 91.273 43.2983 90.9613 44.5993 90.9613C45.6158 90.9613 46.578 91.1375 47.4725 91.5034C48.3669 91.8694 49.1123 92.3708 49.6951 93.0349L48.516 94.214C48.0823 93.6719 47.5131 93.2517 46.8355 92.9671C46.1443 92.6825 45.4125 92.5334 44.6264 92.5334C43.6506 92.5334 42.7291 92.7638 41.8888 93.2382C41.0485 93.7125 40.3709 94.3766 39.8559 95.2304C39.3409 96.0842 39.0969 97.0871 39.0969 98.212C39.0969 99.3369 39.3544 100.326 39.8559 101.194C40.3573 102.061 41.0485 102.711 41.9023 103.186C42.7562 103.66 43.6642 103.891 44.64 103.891C45.6158 103.891 46.3476 103.741 46.971 103.457C47.5944 103.172 48.1365 102.779 48.5838 102.305C48.9226 101.939 49.1937 101.505 49.3969 100.99C49.6002 100.475 49.7358 99.9196 49.79 99.2962H44.6535V97.7648H51.3214C51.3892 98.1307 51.4163 98.4559 51.4163 98.7677C51.4163 99.6215 51.2808 100.448 51.0097 101.261C50.7387 102.074 50.305 102.779 49.7087 103.389C48.4347 104.771 46.7271 105.463 44.6129 105.463C43.3118 105.463 42.1056 105.151 41.0079 104.514H40.9943ZM44.5993 105.639C43.2712 105.639 42.0243 105.314 40.913 104.663C39.7881 104.013 38.8937 103.118 38.2296 101.98C37.5655 100.855 37.2402 99.5808 37.2402 98.212C37.2402 96.8432 37.579 95.5828 38.2296 94.4444C38.8801 93.3195 39.7881 92.4115 40.913 91.7609C42.0379 91.1104 43.2712 90.7852 44.5993 90.7852C45.6429 90.7852 46.6322 90.9749 47.5402 91.3408C48.4618 91.7067 49.2208 92.2353 49.8171 92.9129L49.9255 93.0349L48.5025 94.4579L48.3805 94.3088C47.9604 93.7938 47.4183 93.3873 46.7542 93.1027C46.0901 92.818 45.3718 92.6825 44.6129 92.6825C43.6642 92.6825 42.7697 92.9129 41.9565 93.3737C41.1434 93.8345 40.4793 94.485 39.9779 95.3117C39.49 96.1384 39.2325 97.1142 39.2325 98.1984C39.2325 99.2826 39.4764 100.258 39.9779 101.085C40.4658 101.912 41.1434 102.562 41.9565 103.023C42.7833 103.484 43.6777 103.714 44.6129 103.714C45.548 103.714 46.2798 103.579 46.8762 103.294C47.486 103.01 48.001 102.644 48.4483 102.183C48.7735 101.844 49.031 101.41 49.2343 100.923C49.4105 100.475 49.5325 99.9874 49.5867 99.4588H44.4638V97.5886H51.4434L51.4705 97.7241C51.5383 98.09 51.5654 98.4424 51.5654 98.7677C51.5654 99.635 51.4298 100.489 51.1452 101.316C50.8606 102.142 50.4134 102.874 49.8035 103.498C48.5025 104.907 46.7406 105.625 44.5858 105.625L44.5993 105.639ZM44.5993 91.1375C43.3254 91.1375 42.1463 91.4492 41.0756 92.0591C40.005 92.6825 39.1512 93.5363 38.5142 94.607C37.8908 95.6912 37.5655 96.8974 37.5655 98.1984C37.5655 99.4995 37.8772 100.719 38.5142 101.79C39.1376 102.874 40.005 103.728 41.0756 104.338C42.1463 104.948 43.3254 105.259 44.5993 105.259C46.6593 105.259 48.3263 104.582 49.5731 103.24C50.1559 102.644 50.576 101.953 50.8335 101.18C51.1046 100.394 51.2266 99.5808 51.2266 98.7405C51.2266 98.483 51.1994 98.1984 51.1588 97.9003H44.8026V99.0929H49.9526V99.2827C49.8848 99.9196 49.7493 100.502 49.5325 101.031C49.3156 101.559 49.031 102.02 48.6922 102.386C48.2314 102.874 47.6622 103.281 47.0252 103.579C46.3747 103.877 45.5615 104.026 44.6129 104.026C43.6642 104.026 42.6748 103.782 41.7939 103.294C40.913 102.806 40.2083 102.115 39.6797 101.234C39.1512 100.353 38.8937 99.3233 38.8937 98.1713C38.8937 97.0194 39.1647 95.9894 39.6797 95.1084C40.2083 94.2275 40.913 93.5363 41.7804 93.0484C42.6477 92.5605 43.5964 92.3166 44.5993 92.3166C45.3989 92.3166 46.1714 92.4657 46.8762 92.7638C47.5267 93.0349 48.0688 93.4279 48.5025 93.9158L49.4376 92.9807C48.8955 92.3979 48.2043 91.9371 47.3912 91.6119C46.5238 91.2595 45.5751 91.0833 44.5722 91.0833L44.5993 91.1375ZM55.4821 104.771C54.7096 104.311 54.0997 103.674 53.666 102.874C53.2323 102.074 53.0155 101.194 53.0155 100.218C53.0155 99.242 53.2323 98.3611 53.666 97.5615C54.0997 96.7619 54.7096 96.1249 55.4821 95.6641C56.2546 95.2033 57.1355 94.9729 58.0977 94.9729C59.06 94.9729 59.9409 95.2033 60.7134 95.6641C61.4859 96.1249 62.0958 96.7619 62.5294 97.5615C62.9631 98.3611 63.18 99.242 63.18 100.218C63.18 101.194 62.9631 102.074 62.5294 102.874C62.0958 103.674 61.4859 104.311 60.7134 104.771C59.9409 105.232 59.06 105.463 58.0977 105.463C57.1355 105.463 56.2546 105.232 55.4821 104.771ZM59.7918 103.525C60.3204 103.226 60.7405 102.779 61.0522 102.21C61.3639 101.641 61.5265 100.977 61.5265 100.218C61.5265 99.4588 61.3639 98.7948 61.0522 98.2255C60.7405 97.6563 60.3204 97.2227 59.7918 96.9245C59.2633 96.6263 58.7076 96.4637 58.0977 96.4637C57.4879 96.4637 56.9187 96.6128 56.3901 96.9245C55.8616 97.2227 55.4414 97.6699 55.1162 98.2255C54.8044 98.7948 54.6418 99.4588 54.6418 100.218C54.6418 100.977 54.8044 101.641 55.1162 102.21C55.4279 102.779 55.8616 103.213 56.3901 103.525C56.9187 103.823 57.4879 103.985 58.0977 103.985C58.7076 103.985 59.2768 103.836 59.7918 103.525ZM58.0977 105.639C57.0948 105.639 56.1868 105.395 55.3872 104.921C54.5876 104.446 53.9642 103.782 53.5169 102.955C53.0697 102.129 52.8529 101.207 52.8529 100.218C52.8529 99.2284 53.0833 98.3069 53.5169 97.4801C53.9506 96.6534 54.5876 96.0029 55.3872 95.515C56.1868 95.0407 57.0948 94.7967 58.0977 94.7967C59.1006 94.7967 60.0087 95.0407 60.7947 95.515C61.5943 95.9894 62.2177 96.6534 62.665 97.4801C63.1122 98.3069 63.3291 99.2284 63.3291 100.218C63.3291 101.207 63.0987 102.129 62.665 102.955C62.2177 103.782 61.5943 104.446 60.7947 104.921C59.9951 105.395 59.0871 105.639 58.0977 105.639ZM58.0977 95.1355C57.1626 95.1355 56.3088 95.3659 55.5634 95.8132C54.818 96.2604 54.2352 96.8838 53.8151 97.6428C53.395 98.4153 53.1917 99.2827 53.1917 100.218C53.1917 101.153 53.4085 102.02 53.8151 102.793C54.2352 103.565 54.818 104.175 55.5634 104.622C56.3088 105.07 57.1626 105.3 58.0977 105.3C59.0329 105.3 59.8867 105.07 60.6321 104.622C61.3775 104.175 61.9602 103.565 62.3804 102.793C62.8005 102.02 63.0038 101.153 63.0038 100.218C63.0038 99.2827 62.7869 98.4153 62.3804 97.6428C61.9602 96.8703 61.3775 96.2604 60.6321 95.8132C59.8867 95.3659 59.0329 95.1355 58.0977 95.1355ZM58.0977 104.148C57.4608 104.148 56.8644 103.985 56.3088 103.674C55.7531 103.348 55.3059 102.888 54.9806 102.305C54.6554 101.709 54.4792 101.017 54.4792 100.231C54.4792 99.4453 54.6418 98.7405 54.9806 98.1578C55.3059 97.5615 55.7667 97.1007 56.3088 96.789C57.4066 96.152 58.7889 96.152 59.8731 96.789C60.4152 97.1007 60.8625 97.5615 61.2013 98.1578C61.5266 98.7541 61.7027 99.4453 61.7027 100.231C61.7027 101.017 61.5401 101.722 61.2013 102.305C60.876 102.901 60.4288 103.362 59.8731 103.674C59.331 103.985 58.7212 104.148 58.0977 104.148ZM58.0977 96.6263C57.515 96.6263 56.9729 96.7754 56.4714 97.06C55.97 97.3446 55.5634 97.7648 55.2652 98.3069C54.9671 98.849 54.818 99.4859 54.818 100.218C54.818 100.95 54.9671 101.587 55.2652 102.129C55.5634 102.671 55.97 103.091 56.4714 103.376C57.4743 103.945 58.7076 103.945 59.6969 103.376C60.1848 103.091 60.5914 102.671 60.8896 102.129C61.1877 101.587 61.3368 100.95 61.3368 100.218C61.3368 99.4859 61.1877 98.849 60.8896 98.3069C60.5914 97.7648 60.1848 97.3446 59.6969 97.06C59.2091 96.7754 58.6669 96.6263 58.0842 96.6263H58.0977ZM67.0154 104.771C66.2429 104.311 65.633 103.674 65.1993 102.874C64.7656 102.074 64.5488 101.194 64.5488 100.218C64.5488 99.242 64.7656 98.3611 65.1993 97.5615C65.633 96.7619 66.2429 96.1249 67.0154 95.6641C67.7879 95.2033 68.6688 94.9729 69.631 94.9729C70.5933 94.9729 71.4742 95.2033 72.2467 95.6641C73.0192 96.1249 73.6291 96.7619 74.0627 97.5615C74.4964 98.3611 74.7133 99.242 74.7133 100.218C74.7133 101.194 74.4964 102.074 74.0627 102.874C73.6291 103.674 73.0192 104.311 72.2467 104.771C71.4742 105.232 70.5933 105.463 69.631 105.463C68.6688 105.463 67.7879 105.232 67.0154 104.771ZM71.3251 103.525C71.8537 103.226 72.2738 102.779 72.5855 102.21C72.8972 101.641 73.0598 100.977 73.0598 100.218C73.0598 99.4588 72.8972 98.7948 72.5855 98.2255C72.2738 97.6563 71.8537 97.2227 71.3251 96.9245C70.7966 96.6263 70.2409 96.4637 69.631 96.4637C69.0212 96.4637 68.4519 96.6128 67.9234 96.9245C67.3948 97.2227 66.9747 97.6699 66.6494 98.2255C66.3377 98.7948 66.1751 99.4588 66.1751 100.218C66.1751 100.977 66.3377 101.641 66.6494 102.21C66.9612 102.779 67.3948 103.213 67.9234 103.525C68.4519 103.823 69.0212 103.985 69.631 103.985C70.2409 103.985 70.8101 103.836 71.3251 103.525ZM69.631 105.639C68.6281 105.639 67.7201 105.395 66.9205 104.921C66.1209 104.446 65.4975 103.782 65.0502 102.955C64.603 102.129 64.3862 101.207 64.3862 100.218C64.3862 99.2284 64.6166 98.3069 65.0502 97.4801C65.4839 96.6534 66.1209 96.0029 66.9205 95.515C67.7201 95.0407 68.6281 94.7967 69.631 94.7967C70.6339 94.7967 71.5419 95.0407 72.328 95.515C73.1276 95.9894 73.751 96.6534 74.1983 97.4801C74.6455 98.3069 74.8623 99.2284 74.8623 100.218C74.8623 101.207 74.6319 102.129 74.1983 102.955C73.751 103.782 73.1276 104.446 72.328 104.921C71.5284 105.395 70.6204 105.639 69.631 105.639ZM69.631 95.1355C68.6959 95.1355 67.8421 95.3659 67.0967 95.8132C66.3513 96.2604 65.7685 96.8838 65.3484 97.6428C64.9283 98.4153 64.725 99.2827 64.725 100.218C64.725 101.153 64.9418 102.02 65.3484 102.793C65.7685 103.565 66.3513 104.175 67.0967 104.622C67.8421 105.07 68.6959 105.3 69.631 105.3C70.5662 105.3 71.42 105.07 72.1654 104.622C72.9108 104.175 73.4935 103.565 73.9137 102.793C74.3338 102.02 74.5371 101.153 74.5371 100.218C74.5371 99.2827 74.3202 98.4153 73.9137 97.6428C73.4935 96.8703 72.9108 96.2604 72.1654 95.8132C71.42 95.3659 70.5662 95.1355 69.631 95.1355ZM69.631 104.148C68.994 104.148 68.3977 103.985 67.8421 103.674C67.2864 103.348 66.8392 102.888 66.5139 102.305C66.1887 101.709 66.0125 101.017 66.0125 100.231C66.0125 99.4453 66.1751 98.7405 66.5139 98.1578C66.8392 97.5615 67.3 97.1007 67.8421 96.789C68.9398 96.152 70.3222 96.152 71.4064 96.789C71.9485 97.1007 72.3958 97.5615 72.7346 98.1578C73.0598 98.7541 73.236 99.4453 73.236 100.231C73.236 101.017 73.0734 101.722 72.7346 102.305C72.4093 102.901 71.9621 103.362 71.4064 103.674C70.8643 103.985 70.2544 104.148 69.631 104.148ZM69.631 96.6263C69.0483 96.6263 68.5062 96.7754 68.0047 97.06C67.5033 97.3446 67.0967 97.7648 66.7985 98.3069C66.5004 98.849 66.3513 99.4859 66.3513 100.218C66.3513 100.95 66.5004 101.587 66.7985 102.129C67.0967 102.671 67.5033 103.091 68.0047 103.376C69.0076 103.945 70.2409 103.945 71.2302 103.376C71.7181 103.091 72.1247 102.671 72.4229 102.129C72.721 101.587 72.8701 100.95 72.8701 100.218C72.8701 99.4859 72.721 98.849 72.4229 98.3069C72.1247 97.7648 71.7181 97.3446 71.2302 97.06C70.7423 96.7754 70.2002 96.6263 69.6175 96.6263H69.631ZM78.0743 108.837C77.3154 108.295 76.8139 107.645 76.5564 106.886L78.0472 106.249C78.2641 106.818 78.63 107.279 79.145 107.631C79.66 107.983 80.2563 108.16 80.961 108.16C81.9775 108.16 82.7771 107.875 83.3327 107.306C83.8884 106.737 84.173 105.923 84.173 104.866V103.769H84.0917C83.7664 104.27 83.3192 104.677 82.7229 105.002C82.1401 105.314 81.4625 105.476 80.7171 105.476C79.8633 105.476 79.0908 105.259 78.386 104.812C77.6813 104.365 77.1256 103.741 76.7055 102.955C76.2854 102.156 76.0821 101.248 76.0821 100.231C76.0821 99.2149 76.2854 98.3204 76.7055 97.5208C77.1256 96.7212 77.6813 96.0978 78.386 95.6505C79.0908 95.2033 79.8633 94.9865 80.7171 94.9865C81.4625 94.9865 82.1401 95.1491 82.7229 95.4608C83.3056 95.7725 83.7664 96.1926 84.0917 96.7076H84.173V95.2982H85.7451V104.799C85.7451 106.384 85.3114 107.604 84.4305 108.431C83.5496 109.257 82.3976 109.678 80.961 109.678C79.7955 109.678 78.8333 109.406 78.0879 108.864L78.0743 108.837ZM82.5738 103.525C83.0617 103.226 83.4412 102.793 83.7393 102.224C84.0239 101.654 84.173 100.99 84.173 100.218C84.173 99.4453 84.0239 98.7541 83.7393 98.1849C83.4547 97.6157 83.0617 97.1955 82.5738 96.8974C82.0859 96.5992 81.5438 96.4502 80.961 96.4502C80.3783 96.4502 79.8226 96.5992 79.3347 96.8974C78.8468 97.1955 78.4538 97.6292 78.1556 98.1984C77.871 98.7676 77.7219 99.4317 77.7219 100.204C77.7219 100.977 77.871 101.654 78.1556 102.224C78.4402 102.793 78.8333 103.226 79.3347 103.525C79.8362 103.823 80.3647 103.972 80.961 103.972C81.5573 103.972 82.0994 103.823 82.5738 103.525ZM80.961 109.827C79.7684 109.827 78.7655 109.542 77.9794 108.986C77.1934 108.431 76.6648 107.739 76.3938 106.94L76.3396 106.791L78.1421 106.018L78.2098 106.181C78.4131 106.709 78.7655 107.157 79.2398 107.482C79.7142 107.821 80.2969 107.983 80.961 107.983C81.9233 107.983 82.6822 107.712 83.2108 107.184C83.7393 106.655 84.0104 105.869 84.0104 104.866V104.175C83.6987 104.555 83.2921 104.88 82.8177 105.137C82.2079 105.463 81.5031 105.625 80.7306 105.625C79.8497 105.625 79.0366 105.395 78.3047 104.934C77.5729 104.473 76.9901 103.823 76.57 103.01C76.1498 102.196 75.933 101.248 75.933 100.204C75.933 99.1607 76.1498 98.2391 76.57 97.4124C76.9901 96.5857 77.5864 95.9352 78.3047 95.4744C79.0366 95.0136 79.8497 94.7832 80.7306 94.7832C81.5031 94.7832 82.2079 94.9458 82.8177 95.2846C83.2921 95.5421 83.6987 95.8674 84.0104 96.2604V95.0949H85.9213V104.758C85.9213 106.384 85.4605 107.645 84.5525 108.512C83.6444 109.366 82.4383 109.813 80.961 109.813V109.827ZM76.7733 106.981C77.0308 107.645 77.5051 108.227 78.1827 108.702C78.901 109.217 79.8362 109.488 80.961 109.488C82.3434 109.488 83.4683 109.081 84.3085 108.282C85.1488 107.482 85.5689 106.303 85.5689 104.771V95.4473H84.3356V96.8567H83.9968L83.9426 96.7754C83.6309 96.2875 83.1972 95.8809 82.6416 95.5828C82.0859 95.2846 81.4354 95.122 80.7171 95.122C79.9039 95.122 79.145 95.3388 78.4673 95.759C77.7897 96.1791 77.2476 96.789 76.8546 97.5615C76.4616 98.334 76.2583 99.2284 76.2583 100.191C76.2583 101.153 76.4616 102.074 76.8546 102.833C77.2476 103.606 77.7897 104.202 78.4673 104.636C79.145 105.056 79.8904 105.273 80.7171 105.273C81.4354 105.273 82.0859 105.124 82.6416 104.826C83.1972 104.528 83.6444 104.134 83.9426 103.647L83.9968 103.565H84.3356V104.839C84.3356 105.937 84.0375 106.804 83.4412 107.401C82.8448 107.997 82.0046 108.309 80.9475 108.309C80.2156 108.309 79.5787 108.119 79.0366 107.739C78.5487 107.401 78.1827 106.967 77.9523 106.438L76.7597 106.953L76.7733 106.981ZM80.961 104.148C80.3376 104.148 79.7684 103.985 79.2398 103.687C78.7248 103.376 78.3047 102.915 78.0065 102.318C77.7084 101.722 77.5458 101.017 77.5458 100.218C77.5458 99.4182 77.6948 98.7134 78.0065 98.1307C78.3047 97.5479 78.7248 97.0871 79.2398 96.7619C79.7548 96.4502 80.3376 96.2875 80.961 96.2875C81.5844 96.2875 82.1537 96.4501 82.6687 96.7483C83.1837 97.06 83.5902 97.5208 83.8884 98.1036C84.1866 98.6863 84.3492 99.4046 84.3492 100.204C84.3492 101.004 84.2001 101.709 83.8884 102.291C83.5902 102.874 83.1701 103.335 82.6687 103.66C82.1537 103.972 81.5844 104.134 80.961 104.134V104.148ZM80.961 96.6263C80.4054 96.6263 79.8904 96.7754 79.416 97.06C78.9552 97.3446 78.5758 97.7648 78.3047 98.2933C78.0337 98.8354 77.8846 99.4859 77.8846 100.218C77.8846 100.95 78.0201 101.614 78.3047 102.156C78.5758 102.698 78.9552 103.104 79.416 103.389C79.8768 103.674 80.3918 103.809 80.961 103.809C81.5302 103.809 82.0317 103.66 82.4925 103.376C82.9533 103.091 83.3192 102.671 83.5902 102.142C83.8613 101.6 84.0104 100.95 84.0104 100.218C84.0104 99.4859 83.8748 98.8083 83.5902 98.2662C83.3192 97.7377 82.9397 97.3175 82.4925 97.0465C82.0317 96.7754 81.5167 96.6263 80.961 96.6263ZM88.171 91.2866H89.8245V105.164H88.171V91.2866ZM89.9871 105.327H87.9948V91.1104H89.9871V105.327ZM88.3337 104.988H89.6483V91.4492H88.3337V104.988ZM94.1206 104.785C93.3752 104.338 92.7925 103.714 92.3723 102.915C91.9522 102.115 91.7489 101.221 91.7489 100.231C91.7489 99.242 91.9522 98.4017 92.3452 97.5886C92.7383 96.789 93.2939 96.152 94.0258 95.6641C94.7441 95.1898 95.5843 94.9458 96.5466 94.9458C97.5088 94.9458 98.3491 95.1627 99.0673 95.5963C99.7721 96.03 100.328 96.6263 100.707 97.3853C101.087 98.1442 101.276 99.0251 101.276 100.001C101.276 100.191 101.263 100.367 101.222 100.502H93.4159C93.4566 101.248 93.6327 101.885 93.958 102.4C94.2833 102.915 94.6898 103.308 95.1913 103.565C95.6927 103.823 96.2077 103.958 96.7498 103.958C98.0102 103.958 98.986 103.362 99.6772 102.169L101.073 102.847C100.653 103.647 100.07 104.284 99.3384 104.744C98.6066 105.205 97.7256 105.436 96.6956 105.436C95.747 105.436 94.9067 105.205 94.1613 104.758L94.1206 104.785ZM99.5146 99.1607C99.4875 98.7541 99.3655 98.334 99.1622 97.9138C98.9589 97.5073 98.6337 97.1549 98.1864 96.8703C97.7392 96.5857 97.1835 96.4502 96.5059 96.4502C95.7334 96.4502 95.0693 96.6941 94.5408 97.1955C93.9987 97.697 93.6463 98.3475 93.4837 99.1607H99.5146ZM96.6685 105.625C95.6927 105.625 94.8118 105.395 94.0393 104.921C93.2668 104.46 92.6569 103.796 92.2233 102.983C91.7896 102.169 91.5727 101.234 91.5727 100.218C91.5727 99.2013 91.776 98.334 92.1826 97.5073C92.5892 96.6805 93.1719 96.0165 93.9173 95.5286C94.6627 95.0271 95.5437 94.7832 96.533 94.7832C97.5223 94.7832 98.4033 95.0136 99.1351 95.4608C99.8669 95.908 100.436 96.5315 100.829 97.3175C101.222 98.1036 101.425 99.0116 101.425 100.014C101.425 100.218 101.398 100.408 101.358 100.557L101.317 100.679H93.565C93.6192 101.316 93.7954 101.871 94.0664 102.318C94.3781 102.806 94.7576 103.172 95.2319 103.416C95.7063 103.66 96.2077 103.782 96.7092 103.782C97.9154 103.782 98.8234 103.226 99.4875 102.088L99.5688 101.953L101.263 102.779L101.182 102.928C100.748 103.755 100.138 104.406 99.3926 104.893C98.6337 105.368 97.7256 105.612 96.655 105.612L96.6685 105.625ZM94.2155 104.636C94.9338 105.07 95.7605 105.286 96.6685 105.286C97.6714 105.286 98.5252 105.056 99.2164 104.609C99.8669 104.189 100.409 103.633 100.802 102.928L99.7043 102.4C98.9996 103.552 97.9831 104.134 96.7092 104.134C96.14 104.134 95.5843 103.999 95.0693 103.728C94.5408 103.457 94.1071 103.05 93.7683 102.508C93.4294 101.966 93.2397 101.302 93.1991 100.529V100.353H101.046C101.06 100.258 101.073 100.136 101.073 100.014C101.073 99.0658 100.883 98.212 100.517 97.4666C100.152 96.7348 99.623 96.152 98.9454 95.7454C98.2677 95.3253 97.441 95.122 96.5194 95.122C95.5979 95.122 94.7847 95.3524 94.0935 95.8132C93.4023 96.274 92.8602 96.8974 92.4808 97.6699C92.1013 98.4424 91.9115 99.3098 91.9115 100.231C91.9115 101.153 92.1148 102.074 92.5214 102.833C92.928 103.592 93.4972 104.202 94.2155 104.636ZM99.6908 99.3233H93.2804L93.321 99.12C93.4972 98.2798 93.8631 97.5886 94.4323 97.06C95.0015 96.5315 95.6927 96.274 96.5194 96.274C97.2242 96.274 97.8205 96.423 98.2813 96.7212C98.7556 97.0194 99.0944 97.3988 99.3248 97.8325C99.5417 98.2662 99.6637 98.6999 99.6908 99.1336V99.3098V99.3233ZM93.7141 98.9845H99.3384C99.2977 98.6592 99.1893 98.3204 99.0267 97.9952C98.8369 97.6157 98.5252 97.2769 98.1051 97.0194C97.685 96.7619 97.1564 96.6263 96.5194 96.6263C95.7876 96.6263 95.1642 96.8567 94.6627 97.3311C94.202 97.7648 93.8767 98.3204 93.7005 98.998L93.7141 98.9845ZM107.24 91.2731H111.915C112.688 91.2731 113.406 91.4492 114.07 91.8016C114.734 92.154 115.249 92.6419 115.656 93.2653C116.049 93.8887 116.252 94.5934 116.252 95.393C116.252 96.1926 116.049 96.8838 115.656 97.5208C115.263 98.1442 114.734 98.6321 114.07 98.9845C113.406 99.3369 112.688 99.513 111.915 99.513H108.866V105.178H107.24V91.3002V91.2731ZM111.956 97.9138C112.471 97.9138 112.932 97.7919 113.325 97.5479C113.718 97.304 114.029 96.9923 114.246 96.5992C114.463 96.2062 114.572 95.7996 114.572 95.3795C114.572 94.9594 114.463 94.5528 114.246 94.1598C114.029 93.7667 113.718 93.455 113.325 93.2111C112.932 92.9671 112.471 92.8452 111.956 92.8452H108.879V97.9274H111.956V97.9138ZM109.042 105.314H107.077V91.0969H111.915C112.715 91.0969 113.46 91.273 114.151 91.639C114.829 92.0049 115.385 92.5199 115.791 93.1569C116.198 93.8074 116.415 94.5528 116.415 95.3659C116.415 96.1791 116.211 96.9245 115.791 97.575C115.385 98.2255 114.829 98.7405 114.151 99.0929C113.474 99.4588 112.728 99.635 111.915 99.635H109.042V105.3V105.314ZM107.416 104.975H108.703V99.3098H111.915C112.661 99.3098 113.352 99.1471 113.989 98.8083C114.612 98.4695 115.127 98.0087 115.507 97.3988C115.886 96.8025 116.076 96.1113 116.076 95.3659C116.076 94.6205 115.886 93.9294 115.507 93.333C115.127 92.7367 114.626 92.2624 113.989 91.9236C113.352 91.5848 112.661 91.4221 111.915 91.4221H107.416V104.961V104.975ZM111.956 98.09H108.703V92.669H111.956C112.498 92.669 112.986 92.8045 113.406 93.062C113.826 93.3195 114.151 93.6583 114.382 94.0784C114.612 94.485 114.734 94.9323 114.734 95.3795C114.734 95.8267 114.612 96.274 114.382 96.6805C114.151 97.0871 113.826 97.4259 113.406 97.697C112.986 97.9545 112.498 98.09 111.956 98.09ZM109.042 97.7512H111.956C112.444 97.7512 112.864 97.6428 113.23 97.4124C113.596 97.182 113.894 96.8838 114.097 96.5179C114.3 96.152 114.409 95.7725 114.409 95.3795C114.409 94.9865 114.3 94.607 114.097 94.2411C113.894 93.8751 113.596 93.577 113.23 93.3466C112.864 93.1162 112.43 93.0078 111.956 93.0078H109.042V97.7512ZM119.545 105.029C118.976 104.744 118.542 104.351 118.231 103.85C117.919 103.348 117.77 102.793 117.77 102.156C117.77 101.112 118.163 100.286 118.949 99.7028C119.735 99.12 120.738 98.8219 121.931 98.8219C122.527 98.8219 123.083 98.8896 123.584 99.0116C124.099 99.1471 124.492 99.2962 124.763 99.4588V98.8625C124.763 98.1307 124.506 97.5344 123.991 97.0871C123.476 96.6399 122.825 96.423 122.039 96.423C121.483 96.423 120.968 96.545 120.508 96.7754C120.047 97.0194 119.681 97.3446 119.41 97.7783L118.163 96.8432C118.556 96.2469 119.085 95.7861 119.762 95.4473C120.44 95.1084 121.199 94.9458 122.025 94.9458C123.367 94.9458 124.424 95.2982 125.197 96.0029C125.969 96.7077 126.349 97.6699 126.349 98.8761V105.137H124.777V103.728H124.695C124.411 104.202 123.991 104.609 123.421 104.948C122.852 105.286 122.215 105.449 121.497 105.449C120.779 105.449 120.128 105.314 119.559 105.029H119.545ZM123.191 103.579C123.665 103.294 124.045 102.915 124.329 102.44C124.614 101.966 124.75 101.438 124.75 100.868C124.438 100.665 124.058 100.489 123.611 100.367C123.164 100.245 122.676 100.177 122.175 100.177C121.267 100.177 120.589 100.367 120.128 100.746C119.667 101.126 119.437 101.6 119.437 102.196C119.437 102.739 119.64 103.172 120.06 103.511C120.48 103.85 120.995 104.013 121.632 104.013C122.188 104.013 122.703 103.877 123.177 103.592L123.191 103.579ZM121.483 105.625C120.738 105.625 120.06 105.476 119.464 105.178C118.868 104.88 118.407 104.473 118.082 103.945C117.756 103.43 117.594 102.82 117.594 102.156C117.594 101.058 118.014 100.191 118.841 99.5673C119.654 98.9574 120.697 98.6592 121.931 98.6592C122.54 98.6592 123.11 98.727 123.625 98.8625C124.018 98.9574 124.329 99.0658 124.587 99.1878V98.8761C124.587 98.1849 124.357 97.6428 123.869 97.2362C123.381 96.8161 122.771 96.6128 122.025 96.6128C121.497 96.6128 121.009 96.7212 120.575 96.9516C120.142 97.1684 119.789 97.4937 119.532 97.8867L119.437 98.0358L117.919 96.8974L118 96.7619C118.407 96.1384 118.963 95.6505 119.667 95.3117C120.372 94.9729 121.145 94.7967 121.998 94.7967C123.381 94.7967 124.479 95.1627 125.278 95.8945C126.078 96.6263 126.484 97.6428 126.484 98.8896V105.314H124.573V104.162C124.289 104.514 123.923 104.839 123.476 105.097C122.879 105.449 122.202 105.625 121.47 105.625H121.483ZM121.931 98.998C120.765 98.998 119.803 99.2826 119.044 99.8519C118.299 100.408 117.933 101.166 117.933 102.169C117.933 102.766 118.082 103.308 118.366 103.769C118.664 104.243 119.085 104.609 119.613 104.88C120.155 105.151 120.779 105.286 121.47 105.286C122.161 105.286 122.757 105.124 123.299 104.812C123.842 104.487 124.248 104.107 124.519 103.647L124.573 103.565H124.912V104.975H126.146V98.8896C126.146 97.7377 125.78 96.8025 125.048 96.1384C124.316 95.4608 123.286 95.122 121.998 95.122C121.199 95.122 120.467 95.2846 119.816 95.6099C119.22 95.908 118.732 96.3146 118.38 96.8161L119.342 97.5479C119.613 97.1684 119.979 96.8703 120.413 96.6399C120.901 96.3959 121.443 96.2604 122.025 96.2604C122.852 96.2604 123.543 96.5044 124.099 96.9652C124.655 97.4395 124.939 98.09 124.939 98.8625V99.7705L124.682 99.6079C124.424 99.4453 124.045 99.3098 123.557 99.1878C123.056 99.0658 122.513 98.998 121.944 98.998H121.931ZM121.646 104.175C120.982 104.175 120.413 103.999 119.965 103.633C119.518 103.267 119.288 102.779 119.288 102.183C119.288 101.532 119.545 101.004 120.033 100.597C120.521 100.204 121.239 100.001 122.188 100.001C122.703 100.001 123.205 100.069 123.665 100.204C124.14 100.34 124.533 100.516 124.858 100.733L124.939 100.787V100.882C124.939 101.478 124.79 102.034 124.492 102.535C124.194 103.037 123.787 103.443 123.286 103.741C122.784 104.04 122.229 104.189 121.646 104.189V104.175ZM122.188 100.34C121.321 100.34 120.67 100.516 120.25 100.868C119.83 101.207 119.627 101.641 119.627 102.196C119.627 102.684 119.803 103.077 120.182 103.389C120.562 103.701 121.05 103.85 121.646 103.85C122.175 103.85 122.662 103.714 123.11 103.443C123.557 103.172 123.923 102.806 124.194 102.359C124.451 101.939 124.587 101.465 124.601 100.963C124.316 100.787 123.977 100.638 123.584 100.529C123.15 100.408 122.676 100.34 122.202 100.34H122.188ZM128.355 95.4202H129.927V96.9923H130.008C130.238 96.4095 130.631 95.9623 131.187 95.637C131.743 95.3117 132.353 95.1491 133.003 95.1491C133.288 95.1491 133.532 95.1626 133.721 95.2033V96.8838C133.505 96.8296 133.206 96.8025 132.827 96.8025C131.987 96.8025 131.309 97.0871 130.78 97.6292C130.252 98.1849 129.994 98.9032 129.994 99.7976V105.286H128.341V95.4066L128.355 95.4202ZM138.384 105.259C138.045 105.124 137.76 104.948 137.516 104.731C137.259 104.487 137.069 104.189 136.933 103.863C136.798 103.538 136.744 103.132 136.744 102.657V96.7619H135.022V95.2711H136.744V92.4792H138.384V95.2711H140.782V96.7619H138.384V102.264C138.384 102.82 138.492 103.226 138.695 103.498C138.939 103.782 139.292 103.931 139.766 103.931C140.145 103.931 140.498 103.823 140.85 103.606V105.219C140.66 105.314 140.457 105.368 140.254 105.408C140.051 105.449 139.793 105.463 139.495 105.463C139.088 105.463 138.722 105.395 138.384 105.259ZM139.495 105.625C139.075 105.625 138.682 105.558 138.316 105.422C137.95 105.286 137.638 105.097 137.394 104.853C137.123 104.582 136.906 104.27 136.771 103.931C136.635 103.592 136.567 103.159 136.567 102.671V96.9381H134.846V95.1084H136.567V92.3166H138.546V95.1084H140.945V96.9381H138.546V102.278C138.546 102.793 138.641 103.172 138.817 103.403C139.034 103.647 139.332 103.769 139.752 103.769C140.091 103.769 140.43 103.66 140.742 103.47L140.999 103.308V105.327L140.904 105.368C140.687 105.463 140.484 105.53 140.267 105.571C140.064 105.612 139.793 105.625 139.468 105.625H139.495ZM135.185 96.5857H136.906V102.657C136.906 103.104 136.961 103.498 137.082 103.796C137.204 104.094 137.381 104.378 137.625 104.609C137.841 104.812 138.112 104.988 138.424 105.11C138.749 105.232 139.102 105.3 139.481 105.3C139.779 105.3 140.023 105.286 140.213 105.246C140.362 105.219 140.511 105.178 140.674 105.11V103.904C140.376 104.04 140.064 104.121 139.752 104.121C139.237 104.121 138.831 103.958 138.56 103.619C138.329 103.321 138.207 102.888 138.207 102.278V96.5992H140.606V95.4473H138.207V92.6554H136.906V95.4473H135.185V96.5992V96.5857ZM130.171 105.476H128.178V95.2575H130.089V96.4502C130.333 96.0571 130.672 95.7454 131.092 95.5015C131.675 95.1627 132.312 94.9865 133.003 94.9865C133.288 94.9865 133.545 95.0136 133.749 95.0407L133.884 95.0678V97.1007L133.681 97.0465C133.477 96.9923 133.193 96.9787 132.827 96.9787C132.027 96.9787 131.404 97.2362 130.902 97.7648C130.415 98.2798 130.171 98.9709 130.171 99.8248V105.476ZM128.517 105.137H129.832V99.8248C129.832 98.8896 130.116 98.1307 130.659 97.5344C131.214 96.9516 131.946 96.6534 132.827 96.6534C133.112 96.6534 133.355 96.667 133.545 96.6941V95.3524C133.383 95.3253 133.206 95.3253 133.003 95.3253C132.38 95.3253 131.797 95.4879 131.268 95.7861C130.74 96.0978 130.374 96.5044 130.157 97.06L130.116 97.1684H129.751V95.5963H128.517V105.137ZM142.666 95.2711H144.238V96.7212H144.32C144.591 96.2333 145.024 95.8132 145.621 95.4744C146.217 95.1355 146.854 94.9594 147.518 94.9594C148.711 94.9594 149.619 95.2982 150.242 95.9894C150.866 96.6805 151.177 97.6157 151.177 98.8083V105.151H149.524V99.0658C149.524 98.1442 149.307 97.4802 148.86 97.0736C148.426 96.667 147.816 96.4502 147.057 96.4502C146.529 96.4502 146.054 96.5992 145.634 96.8974C145.214 97.1955 144.889 97.5886 144.658 98.0765C144.428 98.5644 144.306 99.0658 144.306 99.5944V105.151H142.653V95.2711H142.666ZM151.34 105.327H149.348V99.0658C149.348 98.1984 149.144 97.575 148.738 97.1955C148.331 96.8161 147.762 96.6263 147.057 96.6263C146.569 96.6263 146.122 96.7619 145.729 97.0465C145.336 97.3311 145.024 97.697 144.807 98.1578C144.591 98.6186 144.469 99.1065 144.469 99.6079V105.341H142.476V95.122H144.387V96.3011C144.672 95.9352 145.038 95.6234 145.512 95.3524C146.136 95 146.8 94.8103 147.491 94.8103C148.724 94.8103 149.686 95.1762 150.337 95.908C150.987 96.6263 151.326 97.6157 151.326 98.849V105.354L151.34 105.327ZM149.686 104.988H151.001V98.8219C151.001 97.6834 150.703 96.7754 150.107 96.1113C149.524 95.4608 148.643 95.1355 147.504 95.1355C146.867 95.1355 146.258 95.2982 145.688 95.6234C145.119 95.9487 144.713 96.3417 144.455 96.8025L144.401 96.8838H144.049V95.4337H142.815V104.975H144.13V99.5808C144.13 99.0252 144.252 98.4966 144.496 97.9816C144.74 97.4802 145.079 97.06 145.526 96.7483C145.973 96.4366 146.488 96.274 147.044 96.274C147.843 96.274 148.494 96.5044 148.968 96.9381C149.442 97.3853 149.686 98.09 149.686 99.0523V104.975V104.988ZM155.392 104.785C154.647 104.338 154.064 103.714 153.644 102.915C153.224 102.115 153.02 101.221 153.02 100.231C153.02 99.242 153.224 98.4017 153.617 97.5886C154.01 96.789 154.565 96.152 155.297 95.6641C156.029 95.1762 156.856 94.9458 157.818 94.9458C158.78 94.9458 159.621 95.1627 160.339 95.5963C161.057 96.03 161.599 96.6263 161.979 97.3853C162.358 98.1442 162.548 99.0251 162.548 100.001C162.548 100.191 162.534 100.367 162.494 100.502H154.687C154.728 101.248 154.904 101.885 155.229 102.4C155.555 102.915 155.961 103.308 156.463 103.565C156.964 103.823 157.479 103.958 158.021 103.958C159.282 103.958 160.257 103.362 160.949 102.169L162.345 102.847C161.911 103.647 161.342 104.284 160.61 104.744C159.878 105.205 158.997 105.436 157.967 105.436C157.018 105.436 156.178 105.205 155.433 104.758L155.392 104.785ZM160.786 99.1607C160.759 98.7541 160.637 98.334 160.434 97.9138C160.23 97.5073 159.905 97.1549 159.458 96.8703C159.011 96.5857 158.455 96.4502 157.777 96.4502C157.005 96.4502 156.341 96.6941 155.812 97.1955C155.27 97.697 154.918 98.3475 154.755 99.1607H160.786ZM157.94 105.625C156.978 105.625 156.083 105.395 155.311 104.921C154.538 104.46 153.928 103.796 153.495 102.983C153.061 102.169 152.844 101.234 152.844 100.218C152.844 99.2013 153.047 98.334 153.454 97.5073C153.861 96.6805 154.443 96.0165 155.189 95.5286C155.934 95.0271 156.815 94.7832 157.804 94.7832C158.794 94.7832 159.675 95.0136 160.407 95.4608C161.138 95.908 161.708 96.5315 162.101 97.3175C162.494 98.1036 162.697 99.0116 162.697 100.014C162.697 100.218 162.67 100.408 162.629 100.557L162.589 100.679H154.836C154.891 101.316 155.067 101.871 155.338 102.318C155.636 102.806 156.029 103.172 156.503 103.416C156.978 103.66 157.466 103.782 157.981 103.782C159.187 103.782 160.108 103.226 160.759 102.088L160.84 101.953L162.534 102.779L162.453 102.928C162.019 103.755 161.409 104.406 160.664 104.893C159.905 105.368 158.984 105.612 157.926 105.612L157.94 105.625ZM155.487 104.636C156.205 105.07 157.032 105.286 157.94 105.286C158.943 105.286 159.797 105.056 160.488 104.609C161.138 104.189 161.681 103.633 162.074 102.928L160.976 102.4C160.271 103.552 159.255 104.134 157.981 104.134C157.411 104.134 156.856 103.999 156.341 103.728C155.812 103.457 155.379 103.05 155.04 102.508C154.701 101.966 154.511 101.302 154.471 100.529V100.353H162.317C162.331 100.258 162.345 100.136 162.345 100.014C162.345 99.0658 162.155 98.212 161.789 97.4666C161.423 96.7348 160.894 96.1655 160.217 95.7454C159.539 95.3253 158.712 95.122 157.791 95.122C156.869 95.122 156.056 95.3524 155.365 95.8132C154.674 96.274 154.118 96.8974 153.752 97.6699C153.373 98.4424 153.183 99.3098 153.183 100.231C153.183 101.153 153.386 102.074 153.793 102.833C154.199 103.592 154.769 104.202 155.487 104.636ZM160.962 99.3233H154.552L154.592 99.12C154.769 98.2798 155.135 97.5886 155.704 97.06C156.273 96.5315 156.964 96.274 157.791 96.274C158.496 96.274 159.092 96.423 159.553 96.7212C160.027 97.0194 160.366 97.3988 160.596 97.8325C160.813 98.2662 160.935 98.6999 160.962 99.1336V99.3098V99.3233ZM154.972 98.9845H160.596C160.556 98.6592 160.447 98.3204 160.285 97.9952C160.095 97.6157 159.783 97.2769 159.363 97.0194C158.943 96.7483 158.414 96.6263 157.777 96.6263C157.046 96.6263 156.422 96.8567 155.921 97.3311C155.46 97.7648 155.135 98.3204 154.958 98.998L154.972 98.9845ZM164.432 95.2575H166.004V96.8432H166.085C166.275 96.3011 166.654 95.8538 167.21 95.4879C167.766 95.122 168.348 94.9458 168.958 94.9458C169.406 94.9458 169.799 95.0136 170.124 95.1627V96.9245C169.704 96.7212 169.243 96.6128 168.728 96.6128C168.254 96.6128 167.806 96.7483 167.413 97.0194C167.007 97.2904 166.695 97.6563 166.451 98.1171C166.207 98.5779 166.099 99.0658 166.099 99.6079V105.137H164.445V95.2575H164.432ZM166.248 105.314H164.256V95.0949H166.166V96.2875C166.397 95.9352 166.709 95.6234 167.102 95.3659C167.684 94.9865 168.308 94.7967 168.945 94.7967C169.419 94.7967 169.826 94.878 170.178 95.0271L170.286 95.0678V97.2227L170.042 97.1007C169.649 96.9109 169.202 96.8025 168.728 96.8025C168.281 96.8025 167.874 96.9245 167.508 97.182C167.129 97.4395 166.831 97.7919 166.6 98.212C166.37 98.6457 166.261 99.12 166.261 99.6215V105.327L166.248 105.314ZM164.594 104.975H165.909V99.6079C165.909 99.0523 166.031 98.5237 166.288 98.0494C166.532 97.5615 166.885 97.182 167.305 96.8838C167.739 96.5992 168.213 96.4502 168.714 96.4502C169.162 96.4502 169.568 96.5179 169.948 96.667V95.2711C169.663 95.1627 169.338 95.1084 168.958 95.1084C168.389 95.1084 167.833 95.2846 167.305 95.6234C166.79 95.9623 166.424 96.3959 166.248 96.8974L166.207 97.0058H165.841V95.4202H164.608V104.961L164.594 104.975Z" fill="#606469"/>
<path id="Vector_2" d="M131.975 46.1153C131.975 44.0417 131.65 42.0495 131.311 40.125H104.043V51.4279H119.344C118.666 55.0871 116.932 58.1907 113.828 60.2778V67.6504H123.301C128.817 62.5546 131.988 55.0193 131.988 46.1153H131.975Z" fill="#0081C6"/>
<path id="Vector_3" d="M103.946 74.7114C111.82 74.7114 118.448 72.1228 123.286 67.6504L113.813 60.2778C111.211 62.0397 107.863 63.0697 103.946 63.0697C96.3569 63.0697 89.9058 57.9332 87.6019 51.0078H77.8711V58.5837C82.6687 68.1519 92.535 74.7114 103.946 74.7114Z" fill="#00AE57"/>
<path id="Vector_4" d="M87.6156 51.0218C87.0328 49.26 86.7076 47.3897 86.7076 45.4517C86.7076 43.5137 87.0328 41.6434 87.6156 39.8816V32.3057H77.8848C75.9061 36.263 74.7812 40.7218 74.7812 45.4517C74.7812 50.1816 75.9061 54.6404 77.8848 58.5978L87.6156 51.0218Z" fill="#FBAB18"/>
<path id="Vector_5" d="M103.946 27.8194C108.229 27.8194 112.078 29.2967 115.114 32.1969L123.476 23.8079C118.421 19.078 111.82 16.1777 103.946 16.1777C92.5486 16.1777 82.6687 22.7372 77.8711 32.3054L87.6019 39.8813C89.9058 32.9559 96.3433 27.8194 103.946 27.8194Z" fill="#F04931"/>
</g>
</svg>
