<svg width="41" height="41" viewBox="0 0 41 41" fill="none" xmlns="http://www.w3.org/2000/svg">
<g id="Internet Marketing">
<path id="Vector" d="M38 4.88639H28V3.21973C28 2.55669 27.7366 1.9208 27.2678 1.45196C26.7989 0.983119 26.163 0.719727 25.5 0.719727L15.5 0.719727C14.837 0.719727 14.2011 0.983119 13.7322 1.45196C13.2634 1.9208 13 2.55669 13 3.21973V4.88639H3C2.33696 4.88639 1.70107 5.14979 1.23223 5.61863C0.763392 6.08747 0.5 6.72335 0.5 7.38639L0.5 32.3864C0.5 33.0494 0.763392 33.6853 1.23223 34.1542C1.70107 34.623 2.33696 34.8864 3 34.8864H15.6L14.8083 39.0531H13.8333C13.6123 39.0531 13.4004 39.1409 13.2441 39.2971C13.0878 39.4534 13 39.6654 13 39.8864C13 40.1074 13.0878 40.3194 13.2441 40.4756C13.4004 40.6319 13.6123 40.7197 13.8333 40.7197H27.1667C27.3877 40.7197 27.5996 40.6319 27.7559 40.4756C27.9122 40.3194 28 40.1074 28 39.8864C28 39.6654 27.9122 39.4534 27.7559 39.2971C27.5996 39.1409 27.3877 39.0531 27.1667 39.0531H26.1917L25.4 34.8864H38C38.663 34.8864 39.2989 34.623 39.7678 34.1542C40.2366 33.6853 40.5 33.0494 40.5 32.3864V7.38639C40.5 6.72335 40.2366 6.08747 39.7678 5.61863C39.2989 5.14979 38.663 4.88639 38 4.88639ZM14.6667 3.21973C14.6667 2.99871 14.7545 2.78675 14.9107 2.63047C15.067 2.47419 15.279 2.38639 15.5 2.38639H25.5C25.721 2.38639 25.933 2.47419 26.0893 2.63047C26.2455 2.78675 26.3333 2.99871 26.3333 3.21973V9.88639C26.3333 10.1074 26.2455 10.3194 26.0893 10.4756C25.933 10.6319 25.721 10.7197 25.5 10.7197H15.5C15.279 10.7197 15.067 10.6319 14.9107 10.4756C14.7545 10.3194 14.6667 10.1074 14.6667 9.88639V3.21973ZM2.16667 7.38639C2.16667 7.16538 2.25446 6.95342 2.41074 6.79714C2.56702 6.64086 2.77899 6.55306 3 6.55306H13V9.88639C13 10.5494 13.2634 11.1853 13.7322 11.6542C14.2011 12.123 14.837 12.3864 15.5 12.3864H25.5C26.163 12.3864 26.7989 12.123 27.2678 11.6542C27.7366 11.1853 28 10.5494 28 9.88639V6.55306H38C38.221 6.55306 38.433 6.64086 38.5893 6.79714C38.7455 6.95342 38.8333 7.16538 38.8333 7.38639V28.2197H2.16667V7.38639ZM24.4917 39.0531H16.5083L17.3 34.8864H23.7L24.4917 39.0531ZM38.8333 32.3864C38.8333 32.6074 38.7455 32.8194 38.5893 32.9756C38.433 33.1319 38.221 33.2197 38 33.2197H3C2.77899 33.2197 2.56702 33.1319 2.41074 32.9756C2.25446 32.8194 2.16667 32.6074 2.16667 32.3864V29.8864H38.8333V32.3864Z" fill="url(#paint0_linear_44_1403)"/>
<path id="Vector_2" d="M18.8333 9.11975C19.0743 9.26856 19.3491 9.35353 19.632 9.36665C19.9148 9.37978 20.1964 9.32062 20.45 9.19475C22.4833 8.16142 23.6333 7.88642 23.6333 6.55309C23.6339 6.24389 23.5485 5.94062 23.3867 5.67719C23.2248 5.41376 22.9928 5.20056 22.7167 5.06142L20.4083 3.91142C20.1543 3.78519 19.8723 3.72588 19.5889 3.73912C19.3055 3.75236 19.0302 3.8377 18.7891 3.98707C18.5479 4.13644 18.3489 4.34489 18.2108 4.59269C18.0727 4.84048 18.0002 5.11942 18 5.40309C18 7.54475 17.775 8.49475 18.8333 9.11975ZM19.6667 5.40309L21.9667 6.55309L19.6667 7.71142V5.40309Z" fill="url(#paint1_linear_44_1403)"/>
<path id="Vector_3" d="M15.15 15.0449C14.6834 14.7116 14.8667 14.7783 9.53337 16.5533H6.33337C5.67033 16.5533 5.03445 16.8167 4.56561 17.2855C4.09677 17.7543 3.83337 18.3902 3.83337 19.0533V20.7199C3.83337 21.383 4.09677 22.0189 4.56561 22.4877C5.03445 22.9565 5.67033 23.2199 6.33337 23.2199C6.59171 23.2199 6.41671 22.8199 7.16671 25.9199C7.21975 26.141 7.35842 26.3318 7.55221 26.4506C7.74599 26.5694 7.97903 26.6063 8.20004 26.5533C8.42105 26.5002 8.61194 26.3616 8.73072 26.1678C8.84949 25.974 8.88642 25.741 8.83337 25.5199L8.23337 23.2199C9.96671 23.2199 8.74171 22.9533 14.4 24.8449C14.5254 24.8863 14.6587 24.8972 14.7891 24.877C14.9195 24.8567 15.0432 24.8057 15.15 24.7283C15.6334 24.3866 15.5 24.6283 15.5 15.7199C15.4994 15.5877 15.4674 15.4576 15.4065 15.3402C15.3457 15.2228 15.2577 15.1216 15.15 15.0449ZM5.50004 20.7199V19.0533C5.50004 18.8323 5.58784 18.6203 5.74412 18.464C5.9004 18.3077 6.11236 18.2199 6.33337 18.2199H8.83337V21.5533H6.33337C6.11236 21.5533 5.9004 21.4655 5.74412 21.3092C5.58784 21.1529 5.50004 20.941 5.50004 20.7199ZM13.8334 22.8949L10.5 21.7866V17.9866L13.8334 16.8783V22.8949Z" fill="url(#paint2_linear_44_1403)"/>
<path id="Vector_4" d="M19.6666 19.0532H18C17.7789 19.0532 17.567 19.141 17.4107 19.2973C17.2544 19.4536 17.1666 19.6655 17.1666 19.8866C17.1666 20.1076 17.2544 20.3195 17.4107 20.4758C17.567 20.6321 17.7789 20.7199 18 20.7199H19.6666C19.8876 20.7199 20.0996 20.6321 20.2559 20.4758C20.4122 20.3195 20.5 20.1076 20.5 19.8866C20.5 19.6655 20.4122 19.4536 20.2559 19.2973C20.0996 19.141 19.8876 19.0532 19.6666 19.0532Z" fill="url(#paint3_linear_44_1403)"/>
<path id="Vector_5" d="M17.3666 18.0198C17.8666 18.0198 18.0583 17.6698 19.1333 16.5948C19.2417 16.4365 19.2922 16.2457 19.2762 16.0545C19.2603 15.8633 19.1788 15.6834 19.0456 15.5453C18.9124 15.4072 18.7356 15.3193 18.5451 15.2965C18.3546 15.2736 18.162 15.3172 17.9999 15.4198L16.8249 16.5948C16.7101 16.7083 16.6306 16.8528 16.5963 17.0106C16.562 17.1684 16.5743 17.3328 16.6316 17.4838C16.689 17.6347 16.789 17.7658 16.9195 17.8609C17.05 17.9561 17.2053 18.0113 17.3666 18.0198Z" fill="url(#paint4_linear_44_1403)"/>
<path id="Vector_6" d="M18 22.003C17.8387 21.8416 17.6199 21.751 17.3917 21.751C17.1635 21.751 16.9447 21.8416 16.7834 22.003C16.622 22.1643 16.5314 22.3831 16.5314 22.6113C16.5314 22.8395 16.622 23.0583 16.7834 23.2196C18.0334 24.478 18.1 24.6446 18.55 24.6446C18.7148 24.6439 18.8757 24.5944 19.0124 24.5023C19.149 24.4101 19.2553 24.2795 19.3177 24.127C19.3802 23.9745 19.396 23.8069 19.3632 23.6453C19.3303 23.4838 19.2504 23.3357 19.1334 23.2196L18 22.003Z" fill="url(#paint5_linear_44_1403)"/>
<path id="Vector_7" d="M35.5 15.7197H23.8333C23.6123 15.7197 23.4004 15.8075 23.2441 15.9638C23.0878 16.1201 23 16.332 23 16.5531C23 16.7741 23.0878 16.986 23.2441 17.1423C23.4004 17.2986 23.6123 17.3864 23.8333 17.3864H35.5C35.721 17.3864 35.933 17.2986 36.0893 17.1423C36.2455 16.986 36.3333 16.7741 36.3333 16.5531C36.3333 16.332 36.2455 16.1201 36.0893 15.9638C35.933 15.8075 35.721 15.7197 35.5 15.7197Z" fill="url(#paint6_linear_44_1403)"/>
<path id="Vector_8" d="M35.5 19.0532H23.8333C23.6123 19.0532 23.4004 19.141 23.2441 19.2973C23.0878 19.4536 23 19.6655 23 19.8866C23 20.1076 23.0878 20.3195 23.2441 20.4758C23.4004 20.6321 23.6123 20.7199 23.8333 20.7199H35.5C35.721 20.7199 35.933 20.6321 36.0893 20.4758C36.2455 20.3195 36.3333 20.1076 36.3333 19.8866C36.3333 19.6655 36.2455 19.4536 36.0893 19.2973C35.933 19.141 35.721 19.0532 35.5 19.0532Z" fill="url(#paint7_linear_44_1403)"/>
<path id="Vector_9" d="M31.3333 22.3862H23.8333C23.6123 22.3862 23.4004 22.474 23.2441 22.6303C23.0878 22.7866 23 22.9986 23 23.2196C23 23.4406 23.0878 23.6525 23.2441 23.8088C23.4004 23.9651 23.6123 24.0529 23.8333 24.0529H31.3333C31.5543 24.0529 31.7663 23.9651 31.9226 23.8088C32.0789 23.6525 32.1667 23.4406 32.1667 23.2196C32.1667 22.9986 32.0789 22.7866 31.9226 22.6303C31.7663 22.474 31.5543 22.3862 31.3333 22.3862Z" fill="url(#paint8_linear_44_1403)"/>
</g>
<defs>
<linearGradient id="paint0_linear_44_1403" x1="19.0002" y1="-43.4969" x2="20.6419" y2="40.717" gradientUnits="userSpaceOnUse">
<stop stop-color="white"/>
<stop offset="1" stop-color="#0095FF"/>
</linearGradient>
<linearGradient id="paint1_linear_44_1403" x1="20.5947" y1="-2.48745" x2="20.8249" y2="9.36809" gradientUnits="userSpaceOnUse">
<stop stop-color="white"/>
<stop offset="1" stop-color="#0095FF"/>
</linearGradient>
<linearGradient id="paint2_linear_44_1403" x1="9.23707" y1="1.96621" x2="9.71706" y2="26.5761" gradientUnits="userSpaceOnUse">
<stop stop-color="white"/>
<stop offset="1" stop-color="#0095FF"/>
</linearGradient>
<linearGradient id="paint3_linear_44_1403" x1="18.7083" y1="17.2109" x2="18.7425" y2="20.7208" gradientUnits="userSpaceOnUse">
<stop stop-color="white"/>
<stop offset="1" stop-color="#0095FF"/>
</linearGradient>
<linearGradient id="paint4_linear_44_1403" x1="17.8269" y1="12.2735" x2="17.94" y2="18.0196" gradientUnits="userSpaceOnUse">
<stop stop-color="white"/>
<stop offset="1" stop-color="#0095FF"/>
</linearGradient>
<linearGradient id="paint5_linear_44_1403" x1="17.8488" y1="18.5523" x2="17.9695" y2="24.6443" gradientUnits="userSpaceOnUse">
<stop stop-color="white"/>
<stop offset="1" stop-color="#0095FF"/>
</linearGradient>
<linearGradient id="paint6_linear_44_1403" x1="29.1667" y1="13.8774" x2="29.1753" y2="17.3876" gradientUnits="userSpaceOnUse">
<stop stop-color="white"/>
<stop offset="1" stop-color="#0095FF"/>
</linearGradient>
<linearGradient id="paint7_linear_44_1403" x1="29.1667" y1="17.2109" x2="29.1753" y2="20.7211" gradientUnits="userSpaceOnUse">
<stop stop-color="white"/>
<stop offset="1" stop-color="#0095FF"/>
</linearGradient>
<linearGradient id="paint8_linear_44_1403" x1="27.2396" y1="20.5439" x2="27.2521" y2="24.0541" gradientUnits="userSpaceOnUse">
<stop stop-color="white"/>
<stop offset="1" stop-color="#0095FF"/>
</linearGradient>
</defs>
</svg>
