<svg width="45" height="45" viewBox="0 0 45 45" fill="none" xmlns="http://www.w3.org/2000/svg">
<g id="flaticon_1077976 2" clip-path="url(#clip0_44_1392)">
<path id="Vector" d="M20.8031 30.5629C21.1391 30.2268 21.1391 29.683 20.8031 29.347C20.4668 29.0119 19.9219 29.0119 19.5852 29.347C19.2495 29.683 19.2495 30.2268 19.5852 30.5629C19.9219 30.8979 20.4668 30.8979 20.8031 30.5629Z" fill="url(#paint0_linear_44_1392)"/>
<path id="Vector_2" d="M16.7266 10.1702C16.7266 15.3811 20.9743 19.6209 26.1955 19.6209C31.4167 19.6209 35.6644 15.3811 35.6644 10.1702C35.6644 4.9592 31.4167 0.719727 26.1955 0.719727C20.9743 0.719727 16.7266 4.9592 16.7266 10.1702ZM33.943 10.1702C33.943 14.4338 30.4675 17.9025 26.1955 17.9025C21.9235 17.9025 18.448 14.4338 18.448 10.1702C18.448 5.90686 21.9235 2.43814 26.1955 2.43814C30.4675 2.43814 33.943 5.90686 33.943 10.1702Z" fill="url(#paint1_linear_44_1392)"/>
<path id="Vector_3" d="M10.4583 44.4655C10.792 44.8012 11.3352 44.8049 11.6732 44.4726L15.8466 40.3691C16.5557 39.6614 16.7713 38.6137 16.4595 37.703L17.3572 36.8389C17.8405 36.373 18.4769 36.1162 19.1496 36.1162H30.5932C32.6235 36.1162 34.5423 35.338 35.997 33.9251C36.0569 33.867 35.5426 34.4716 43.8041 24.617C45.0294 23.1701 44.8461 20.9975 43.3951 19.7733C41.9531 18.5604 39.7931 18.7346 38.5644 20.1566L33.4848 25.3672C32.8434 24.5794 31.8653 24.0883 30.8085 24.0883H21.2094C19.8435 23.5179 18.3942 23.2292 16.8987 23.2292C12.7536 23.2292 9.1341 25.14 7.19167 28.7225C6.37333 28.5678 5.51026 28.8148 4.88936 29.4345L0.794292 33.5337C0.459959 33.8684 0.459287 34.4098 0.792946 34.7455L10.4583 44.4655ZM16.8984 24.9473C18.2169 24.9473 19.4917 25.2122 20.6881 25.7345C20.797 25.7822 20.9144 25.8067 21.0332 25.8067H30.8085C31.7419 25.8067 32.5303 26.5663 32.5303 27.5248C32.5303 28.4724 31.758 29.2432 30.8085 29.2432H23.7852C23.3099 29.2432 22.9245 29.6279 22.9245 30.1022C22.9245 30.5769 23.3099 30.9612 23.7852 30.9612H30.8085C32.7072 30.9612 34.2517 29.4197 34.2517 27.5248C34.2517 27.3737 34.241 27.224 34.2215 27.0756C39.1352 22.0345 39.8281 21.3262 39.8577 21.2909C40.4712 20.5682 41.5603 20.4765 42.2848 21.0861C43.01 21.6981 43.1018 22.7844 42.4866 23.5112L34.7657 32.7233C33.6382 33.8036 32.1579 34.3981 30.5932 34.3981H19.1496C18.0282 34.3981 16.9667 34.8261 16.1615 35.6025L15.4299 36.3072L8.68608 29.5768C10.2622 26.6258 13.2197 24.9473 16.8984 24.9473ZM6.10762 30.6487C6.3915 30.3654 6.82741 30.3144 7.17351 30.5279C7.32251 30.6185 6.89468 30.2298 14.6294 37.9386C14.9735 38.282 14.955 38.8292 14.6341 39.1495L11.0762 42.6477L2.61798 34.1416L6.10762 30.6487Z" fill="url(#paint2_linear_44_1392)"/>
<path id="Vector_4" d="M25.1625 5.01563V6.02237C24.1606 6.37686 23.4408 7.33191 23.4408 8.45212C23.4408 9.87311 24.5992 11.0296 26.0233 11.0296C26.4979 11.0296 26.884 11.415 26.884 11.8886C26.884 12.3623 26.4979 12.7477 26.0233 12.7477C25.6556 12.7477 25.2584 12.517 24.9056 12.0978C24.5995 11.7345 24.0566 11.6879 23.6927 11.993C23.3288 12.2985 23.2817 12.8403 23.5878 13.2035C24.0479 13.7497 24.5891 14.1304 25.1625 14.3224V15.3251C25.1625 15.7998 25.548 16.1841 26.0233 16.1841C26.4985 16.1841 26.884 15.7998 26.884 15.3251V14.3184C27.886 13.9635 28.6058 13.0085 28.6058 11.8886C28.6058 10.4673 27.4474 9.31116 26.0233 9.31116C25.5487 9.31116 25.1625 8.92578 25.1625 8.45212C25.1625 7.97846 25.5487 7.59274 26.0233 7.59274C26.3283 7.59274 26.6502 7.74817 26.9543 8.0419C27.296 8.37189 27.8409 8.36283 28.1715 8.0221C28.5022 7.68103 28.4931 7.13721 28.1517 6.80722C27.7148 6.38525 27.2775 6.14658 26.884 6.01633V5.01563C26.884 4.54095 26.4985 4.15625 26.0233 4.15625C25.548 4.15625 25.1625 4.54095 25.1625 5.01563Z" fill="url(#paint3_linear_44_1392)"/>
</g>
<defs>
<linearGradient id="paint0_linear_44_1392" x1="20.1297" y1="27.1961" x2="20.2001" y2="30.814" gradientUnits="userSpaceOnUse">
<stop stop-color="white"/>
<stop offset="1" stop-color="#0095FF"/>
</linearGradient>
<linearGradient id="paint1_linear_44_1392" x1="25.4854" y1="-20.174" x2="26.2597" y2="19.6197" gradientUnits="userSpaceOnUse">
<stop stop-color="white"/>
<stop offset="1" stop-color="#0095FF"/>
</linearGradient>
<linearGradient id="paint2_linear_44_1392" x1="20.9268" y1="-9.50281" x2="21.5447" y2="44.7314" gradientUnits="userSpaceOnUse">
<stop stop-color="white"/>
<stop offset="1" stop-color="#0095FF"/>
</linearGradient>
<linearGradient id="paint3_linear_44_1392" x1="25.8" y1="-9.13959" x2="26.9356" y2="16.1419" gradientUnits="userSpaceOnUse">
<stop stop-color="white"/>
<stop offset="1" stop-color="#0095FF"/>
</linearGradient>
<clipPath id="clip0_44_1392">
<rect width="44" height="44" fill="white" transform="translate(0.5 0.719727)"/>
</clipPath>
</defs>
</svg>
