<svg width="21" height="20" viewBox="0 0 21 20" fill="none" xmlns="http://www.w3.org/2000/svg">
<path d="M8.00002 7.49996H8.00835M13 12.5H13.0084M13.8334 6.66663L7.16669 13.3333M8.16827 17.1674C8.44139 17.1312 8.7173 17.2053 8.93487 17.3729L9.93757 18.1423C10.269 18.3969 10.7301 18.3969 11.0606 18.1423L12.1013 17.3433C12.2957 17.1942 12.5411 17.1285 12.7836 17.1609L14.0854 17.3322C14.4992 17.3868 14.8983 17.1562 15.0584 16.7701L15.5593 15.5591C15.6528 15.3322 15.8324 15.1526 16.0593 15.0591L17.2703 14.5582C17.6564 14.3989 17.8869 13.9989 17.8323 13.585L17.6675 12.3304C17.6314 12.0573 17.7054 11.7814 17.873 11.5638L18.6424 10.5611C18.897 10.2296 18.897 9.76848 18.6424 9.43794L17.8434 8.39723C17.6943 8.20279 17.6286 7.95742 17.661 7.71484L17.8323 6.41302C17.8869 5.99914 17.6564 5.60008 17.2703 5.4399L16.0593 4.93899C15.8324 4.84547 15.6528 4.66585 15.5593 4.439L15.0584 3.22792C14.8992 2.84182 14.4992 2.61128 14.0854 2.6659L12.7836 2.83719C12.5411 2.87053 12.2957 2.80479 12.1022 2.65664L11.0615 1.85759C10.7301 1.60297 10.269 1.60297 9.93849 1.85759L8.89784 2.65664C8.70341 2.80479 8.45806 2.87053 8.21549 2.83905L6.91374 2.66776C6.49989 2.61313 6.10085 2.84368 5.94068 3.22978L5.44072 4.44085C5.34628 4.66677 5.16667 4.8464 4.94076 4.94084L3.72975 5.44083C3.34367 5.60101 3.11314 6.00007 3.16776 6.41395L3.33904 7.71576C3.37052 7.95835 3.30479 8.20371 3.15665 8.39723L2.35764 9.43794C2.10303 9.76941 2.10303 10.2305 2.35764 10.5611L3.15665 11.6018C3.30571 11.7962 3.37145 12.0416 3.33904 12.2842L3.16776 13.586C3.11314 13.9998 3.34367 14.3989 3.72975 14.5591L4.94076 15.06C5.16759 15.1535 5.34721 15.3331 5.44072 15.56L5.9416 16.7711C6.10085 17.1572 6.50082 17.3877 6.91467 17.3331L8.16827 17.1674ZM8.41669 7.49996C8.41669 7.73008 8.23014 7.91662 8.00002 7.91662C7.7699 7.91662 7.58335 7.73008 7.58335 7.49996C7.58335 7.26984 7.7699 7.08329 8.00002 7.08329C8.23014 7.08329 8.41669 7.26984 8.41669 7.49996ZM13.4167 12.5C13.4167 12.7301 13.2301 12.9166 13 12.9166C12.7699 12.9166 12.5834 12.7301 12.5834 12.5C12.5834 12.2698 12.7699 12.0833 13 12.0833C13.2301 12.0833 13.4167 12.2698 13.4167 12.5Z" stroke="white" stroke-width="1.25" stroke-linecap="round" stroke-linejoin="round"/>
</svg>
