<svg width="20" height="20" viewBox="0 0 20 20" fill="none" xmlns="http://www.w3.org/2000/svg">
<path d="M7.50002 7.49996H7.50835M12.5 12.5H12.5084M13.3334 6.66663L6.66669 13.3333M7.66827 17.1674C7.94139 17.1312 8.2173 17.2053 8.43487 17.3729L9.43757 18.1423C9.76902 18.3969 10.2301 18.3969 10.5606 18.1423L11.6013 17.3433C11.7957 17.1942 12.0411 17.1285 12.2836 17.1609L13.5854 17.3322C13.9992 17.3868 14.3983 17.1562 14.5584 16.7701L15.0593 15.5591C15.1528 15.3322 15.3324 15.1526 15.5593 15.0591L16.7703 14.5582C17.1564 14.3989 17.3869 13.9989 17.3323 13.585L17.1675 12.3304C17.1314 12.0573 17.2054 11.7814 17.373 11.5638L18.1424 10.5611C18.397 10.2296 18.397 9.76848 18.1424 9.43794L17.3434 8.39723C17.1943 8.20279 17.1286 7.95742 17.161 7.71484L17.3323 6.41302C17.3869 5.99914 17.1564 5.60008 16.7703 5.4399L15.5593 4.93899C15.3324 4.84547 15.1528 4.66585 15.0593 4.439L14.5584 3.22792C14.3992 2.84182 13.9992 2.61128 13.5854 2.6659L12.2836 2.83719C12.0411 2.87053 11.7957 2.80479 11.6022 2.65664L10.5615 1.85759C10.2301 1.60297 9.76902 1.60297 9.43849 1.85759L8.39784 2.65664C8.20341 2.80479 7.95806 2.87053 7.71549 2.83905L6.41374 2.66776C5.99989 2.61313 5.60085 2.84368 5.44068 3.22978L4.94072 4.44085C4.84628 4.66677 4.66667 4.8464 4.44076 4.94084L3.22975 5.44083C2.84367 5.60101 2.61314 6.00007 2.66776 6.41395L2.83904 7.71576C2.87052 7.95835 2.80479 8.20371 2.65665 8.39723L1.85764 9.43794C1.60303 9.76941 1.60303 10.2305 1.85764 10.5611L2.65665 11.6018C2.80571 11.7962 2.87145 12.0416 2.83904 12.2842L2.66776 13.586C2.61314 13.9998 2.84367 14.3989 3.22975 14.5591L4.44076 15.06C4.66759 15.1535 4.84721 15.3331 4.94072 15.56L5.4416 16.7711C5.60085 17.1572 6.00082 17.3877 6.41467 17.3331L7.66827 17.1674ZM7.91669 7.49996C7.91669 7.73008 7.73014 7.91662 7.50002 7.91662C7.2699 7.91662 7.08335 7.73008 7.08335 7.49996C7.08335 7.26984 7.2699 7.08329 7.50002 7.08329C7.73014 7.08329 7.91669 7.26984 7.91669 7.49996ZM12.9167 12.5C12.9167 12.7301 12.7301 12.9166 12.5 12.9166C12.2699 12.9166 12.0834 12.7301 12.0834 12.5C12.0834 12.2698 12.2699 12.0833 12.5 12.0833C12.7301 12.0833 12.9167 12.2698 12.9167 12.5Z" stroke="url(#paint0_linear_473_6396)" stroke-width="1.25" stroke-linecap="round" stroke-linejoin="round"/>
<defs>
<linearGradient id="paint0_linear_473_6396" x1="9.37512" y1="-16.757" x2="10.0592" y2="18.3321" gradientUnits="userSpaceOnUse">
<stop stop-color="white"/>
<stop offset="1" stop-color="#0095FF"/>
</linearGradient>
</defs>
</svg>
