<svg width="188" height="29" viewBox="0 0 188 29" fill="none" xmlns="http://www.w3.org/2000/svg">
<g clip-path="url(#clip0_35_11948)">
<path d="M17.5783 27.7979C17.5352 27.8092 17.4918 27.8207 17.4484 27.8316C17.4918 27.8207 17.5352 27.8094 17.5783 27.7979Z" fill="white"/>
<path d="M28 14.2607C28 6.52995 21.7308 0.260742 14 0.260742C6.26921 0.260742 0 6.52995 0 14.2607C0 21.9915 6.26921 28.2607 14 28.2607C14.0822 28.2607 14.1641 28.259 14.2461 28.2575V17.3591H11.2383V13.8538H14.2461V11.2743C14.2461 8.28272 16.0724 6.65448 18.7409 6.65448C20.0188 6.65448 21.1173 6.74976 21.4375 6.79227V9.91886H19.5974C18.1456 9.91886 17.8644 10.6089 17.8644 11.6212V13.8538H21.3358L20.8834 17.3591H17.8644V27.7198C23.7162 26.0423 28 20.651 28 14.2607Z" fill="white"/>
</g>
<g clip-path="url(#clip1_35_11948)">
<path d="M54 0.260742C46.2692 0.260742 40 6.52995 40 14.2607C40 21.9915 46.2692 28.2607 54 28.2607C61.7308 28.2607 68 21.9915 68 14.2607C68 6.52995 61.7308 0.260742 54 0.260742ZM49.9318 21.4248H46.5221V11.1669H49.9318V21.4248ZM48.2271 9.76609H48.2048C47.0607 9.76609 46.3207 8.97846 46.3207 7.99409C46.3207 6.9875 47.0833 6.22165 48.2497 6.22165C49.4161 6.22165 50.1338 6.98749 50.1561 7.99409C50.1561 8.97846 49.4161 9.76609 48.2271 9.76609ZM62.2262 21.4248H58.817V15.937C58.817 14.5579 58.3233 13.6173 57.0896 13.6173C56.1477 13.6173 55.5868 14.2518 55.3403 14.8642C55.2501 15.0834 55.2281 15.3897 55.2281 15.6963V21.4248H51.8187C51.8187 21.4248 51.8633 12.1292 51.8187 11.1668H55.2281V12.6193C55.6812 11.9203 56.4919 10.9261 58.3009 10.9261C60.5441 10.9261 62.2262 12.3922 62.2262 15.5429V21.4248Z" fill="white"/>
</g>
<g clip-path="url(#clip2_35_11948)">
<path d="M96.6797 14.2607C96.6797 15.7407 95.48 16.9404 94 16.9404C92.52 16.9404 91.3203 15.7407 91.3203 14.2607C91.3203 12.7808 92.52 11.5811 94 11.5811C95.48 11.5811 96.6797 12.7808 96.6797 14.2607Z" fill="white"/>
<path d="M100.267 9.51925C100.138 9.17019 99.9325 8.85424 99.6655 8.59491C99.4062 8.32788 99.0904 8.12238 98.7411 7.99356C98.4579 7.88354 98.0323 7.75259 97.2486 7.71692C96.4007 7.67825 96.1465 7.66992 94 7.66992C91.8533 7.66992 91.5991 7.67804 90.7514 7.71671C89.9677 7.75259 89.5419 7.88354 89.2588 7.99356C88.9096 8.12238 88.5936 8.32788 88.3345 8.59491C88.0675 8.85425 87.862 9.16998 87.7329 9.51926C87.6229 9.80252 87.492 10.2283 87.4563 11.0121C87.4176 11.8597 87.4093 12.1139 87.4093 14.2606C87.4093 16.4071 87.4176 16.6613 87.4563 17.5092C87.492 18.293 87.6229 18.7185 87.7329 19.0018C87.862 19.351 88.0673 19.6668 88.3343 19.9261C88.5936 20.1931 88.9094 20.3986 89.2586 20.5275C89.5419 20.6377 89.9676 20.7686 90.7514 20.8043C91.5991 20.843 91.8531 20.8511 93.9998 20.8511C96.1467 20.8511 96.4009 20.843 97.2483 20.8043C98.0321 20.7686 98.4579 20.6377 98.7411 20.5275C99.4423 20.257 99.9964 19.7029 100.267 19.0018C100.377 18.7185 100.508 18.293 100.544 17.5092C100.582 16.6613 100.59 16.4071 100.59 14.2606C100.59 12.1139 100.582 11.8597 100.544 11.0121C100.508 10.2283 100.377 9.80252 100.267 9.51925ZM94 18.3885C91.72 18.3885 89.8717 16.5404 89.8717 14.2604C89.8717 11.9804 91.72 10.1324 94 10.1324C96.2798 10.1324 98.128 11.9804 98.128 14.2604C98.128 16.5404 96.2798 18.3885 94 18.3885ZM98.2912 10.9339C97.7585 10.9339 97.3265 10.502 97.3265 9.96919C97.3265 9.43641 97.7585 9.00447 98.2912 9.00447C98.824 9.00447 99.256 9.43642 99.256 9.96919C99.2558 10.502 98.824 10.9339 98.2912 10.9339Z" fill="white"/>
<path d="M94 0.260742C86.2692 0.260742 80 6.52995 80 14.2607C80 21.9915 86.2692 28.2607 94 28.2607C101.731 28.2607 108 21.9915 108 14.2607C108 6.52995 101.731 0.260742 94 0.260742ZM101.991 17.5751C101.952 18.4309 101.816 19.0151 101.617 19.5265C101.199 20.6064 100.346 21.46 99.2658 21.8777C98.7546 22.0763 98.1701 22.2122 97.3146 22.2513C96.4573 22.2904 96.1834 22.2998 94.0002 22.2998C91.8168 22.2998 91.5431 22.2904 90.6856 22.2513C89.8301 22.2122 89.2456 22.0763 88.7344 21.8777C88.1978 21.6758 87.712 21.3594 87.3104 20.9503C86.9015 20.5489 86.5851 20.0629 86.3832 19.5265C86.1846 19.0153 86.0485 18.4308 86.0096 17.5753C85.9701 16.7178 85.9609 16.4439 85.9609 14.2607C85.9609 12.0775 85.9701 11.8036 86.0094 10.9464C86.0483 10.0906 86.1842 9.50632 86.3828 8.9949C86.5847 8.4585 86.9013 7.97251 87.3104 7.57111C87.7118 7.16202 88.1978 6.84564 88.7342 6.64377C89.2456 6.4451 89.8298 6.30924 90.6856 6.27014C91.5429 6.23105 91.8168 6.22165 94 6.22165C96.1832 6.22165 96.4571 6.23105 97.3143 6.27036C98.1701 6.30924 98.7544 6.4451 99.2658 6.64356C99.8022 6.84543 100.288 7.16202 100.69 7.57111C101.099 7.97272 101.415 8.4585 101.617 8.9949C101.816 9.50632 101.952 10.0906 101.991 10.9464C102.03 11.8036 102.039 12.0775 102.039 14.2607C102.039 16.4439 102.03 16.7178 101.991 17.5751Z" fill="white"/>
</g>
<circle cx="134" cy="14.2607" r="14" fill="white"/>
<path d="M141.995 12.7575C140.423 12.7613 138.889 12.2709 137.611 11.3557V17.7386C137.61 18.9208 137.249 20.0746 136.575 21.0459C135.901 22.0172 134.947 22.7596 133.839 23.1738C132.732 23.588 131.525 23.6543 130.379 23.3639C129.233 23.0734 128.203 22.4401 127.427 21.5484C126.651 20.6568 126.165 19.5495 126.035 18.3745C125.905 17.1994 126.137 16.0128 126.7 14.9731C127.263 13.9335 128.129 13.0904 129.184 12.5566C130.239 12.0228 131.432 11.8238 132.603 11.9861V15.1965C132.067 15.0279 131.491 15.033 130.958 15.211C130.426 15.3889 129.963 15.7307 129.636 16.1875C129.309 16.6442 129.135 17.1926 129.138 17.7544C129.141 18.3161 129.322 18.8624 129.654 19.3153C129.987 19.7681 130.453 20.1044 130.988 20.2761C131.523 20.4478 132.099 20.4461 132.632 20.2713C133.166 20.0964 133.631 19.7574 133.961 19.3025C134.29 18.8477 134.468 18.3003 134.468 17.7386V5.26074H137.611C137.609 5.52615 137.631 5.79119 137.677 6.05253C137.786 6.63591 138.013 7.19089 138.344 7.6835C138.676 8.17612 139.104 8.59602 139.603 8.91753C140.312 9.38685 141.144 9.63699 141.995 9.63681V12.7575Z" fill="#091A3F"/>
<circle cx="174" cy="14.2607" r="14" fill="white"/>
<path d="M181.666 10.021C181.482 9.32811 180.939 8.78243 180.251 8.59725C179.003 8.26074 174 8.26074 174 8.26074C174 8.26074 168.997 8.26074 167.749 8.59725C167.061 8.78246 166.518 9.32811 166.334 10.021C166 11.2769 166 13.8971 166 13.8971C166 13.8971 166 16.5174 166.334 17.7732C166.518 18.4661 167.061 18.989 167.749 19.1742C168.997 19.5107 174 19.5107 174 19.5107C174 19.5107 179.003 19.5107 180.251 19.1742C180.939 18.989 181.482 18.4661 181.666 17.7732C182 16.5174 182 13.8971 182 13.8971C182 13.8971 182 11.2769 181.666 10.021ZM172.364 16.2761V11.5181L176.545 13.8972L172.364 16.2761Z" fill="#091A3F"/>
<defs>
<clipPath id="clip0_35_11948">
<rect width="28" height="28" fill="white" transform="translate(0 0.260742)"/>
</clipPath>
<clipPath id="clip1_35_11948">
<rect width="28" height="28" fill="white" transform="translate(40 0.260742)"/>
</clipPath>
<clipPath id="clip2_35_11948">
<rect width="28" height="28" fill="white" transform="translate(80 0.260742)"/>
</clipPath>
</defs>
</svg>
