<svg width="84" height="16" viewBox="0 0 84 16" fill="none" xmlns="http://www.w3.org/2000/svg">
<path d="M7.52175 2.30217C7.6754 1.99088 7.75223 1.83523 7.85653 1.7855C7.94728 1.74224 8.0527 1.74224 8.14345 1.7855C8.24775 1.83523 8.32458 1.99088 8.47823 2.30217L9.93602 5.25548C9.98138 5.34738 10.0041 5.39333 10.0372 5.42901C10.0666 5.4606 10.1018 5.48619 10.1409 5.50437C10.185 5.52491 10.2357 5.53232 10.3371 5.54714L13.598 6.02376C13.9414 6.07395 14.113 6.09905 14.1925 6.18292C14.2616 6.25589 14.2941 6.35616 14.281 6.45581C14.2659 6.57034 14.1416 6.69141 13.893 6.93355L11.5343 9.23091C11.4608 9.30252 11.424 9.33833 11.4003 9.38093C11.3793 9.41866 11.3658 9.4601 11.3606 9.50296C11.3547 9.55137 11.3634 9.60196 11.3807 9.70312L11.9373 12.948C11.996 13.2903 12.0253 13.4614 11.9702 13.563C11.9222 13.6513 11.8369 13.7133 11.738 13.7316C11.6244 13.7527 11.4707 13.6719 11.1634 13.5102L8.24823 11.9772C8.1574 11.9294 8.11199 11.9055 8.06414 11.8961C8.02178 11.8878 7.9782 11.8878 7.93584 11.8961C7.888 11.9055 7.84258 11.9294 7.75175 11.9772L4.8366 13.5102C4.52926 13.6719 4.37559 13.7527 4.26196 13.7316C4.1631 13.7133 4.07779 13.6513 4.0298 13.563C3.97465 13.4614 4.004 13.2903 4.0627 12.948L4.61924 9.70312C4.63659 9.60196 4.64526 9.55137 4.63939 9.50296C4.6342 9.4601 4.62072 9.41866 4.59972 9.38093C4.57599 9.33833 4.53923 9.30252 4.4657 9.2309L2.10702 6.93355C1.85842 6.69141 1.73412 6.57034 1.719 6.45581C1.70584 6.35616 1.73835 6.25589 1.80748 6.18292C1.88694 6.09905 2.05863 6.07395 2.40201 6.02376L5.66285 5.54714C5.76426 5.53232 5.81497 5.52491 5.85912 5.50437C5.89822 5.48619 5.93342 5.4606 5.96277 5.42901C5.99592 5.39333 6.0186 5.34738 6.06396 5.25548L7.52175 2.30217Z" fill="#FCC82C" stroke="#FCC82C" stroke-width="1.2" stroke-linecap="round" stroke-linejoin="round"/>
<path d="M24.5217 2.30217C24.6754 1.99088 24.7522 1.83523 24.8565 1.7855C24.9473 1.74224 25.0527 1.74224 25.1434 1.7855C25.2477 1.83523 25.3246 1.99088 25.4782 2.30217L26.936 5.25548C26.9814 5.34738 27.0041 5.39333 27.0372 5.42901C27.0666 5.4606 27.1018 5.48619 27.1409 5.50437C27.185 5.52491 27.2357 5.53232 27.3371 5.54714L30.598 6.02376C30.9414 6.07395 31.113 6.09905 31.1925 6.18292C31.2616 6.25589 31.2941 6.35616 31.281 6.45581C31.2659 6.57034 31.1416 6.69141 30.893 6.93355L28.5343 9.23091C28.4608 9.30252 28.424 9.33833 28.4003 9.38093C28.3793 9.41866 28.3658 9.4601 28.3606 9.50296C28.3547 9.55137 28.3634 9.60196 28.3807 9.70312L28.9373 12.948C28.996 13.2903 29.0253 13.4614 28.9702 13.563C28.9222 13.6513 28.8369 13.7133 28.738 13.7316C28.6244 13.7527 28.4707 13.6719 28.1634 13.5102L25.2482 11.9772C25.1574 11.9294 25.112 11.9055 25.0641 11.8961C25.0218 11.8878 24.9782 11.8878 24.9358 11.8961C24.888 11.9055 24.8426 11.9294 24.7518 11.9772L21.8366 13.5102C21.5293 13.6719 21.3756 13.7527 21.262 13.7316C21.1631 13.7133 21.0778 13.6513 21.0298 13.563C20.9746 13.4614 21.004 13.2903 21.0627 12.948L21.6192 9.70312C21.6366 9.60196 21.6453 9.55137 21.6394 9.50296C21.6342 9.4601 21.6207 9.41866 21.5997 9.38093C21.576 9.33833 21.5392 9.30252 21.4657 9.2309L19.107 6.93355C18.8584 6.69141 18.7341 6.57034 18.719 6.45581C18.7058 6.35616 18.7383 6.25589 18.8075 6.18292C18.8869 6.09905 19.0586 6.07395 19.402 6.02376L22.6629 5.54714C22.7643 5.53232 22.815 5.52491 22.8591 5.50437C22.8982 5.48619 22.9334 5.4606 22.9628 5.42901C22.9959 5.39333 23.0186 5.34738 23.064 5.25548L24.5217 2.30217Z" fill="#FCC82C" stroke="#FCC82C" stroke-width="1.2" stroke-linecap="round" stroke-linejoin="round"/>
<path d="M41.5217 2.30217C41.6754 1.99088 41.7522 1.83523 41.8565 1.7855C41.9473 1.74224 42.0527 1.74224 42.1434 1.7855C42.2477 1.83523 42.3246 1.99088 42.4782 2.30217L43.936 5.25548C43.9814 5.34738 44.0041 5.39333 44.0372 5.42901C44.0666 5.4606 44.1018 5.48619 44.1409 5.50437C44.185 5.52491 44.2357 5.53232 44.3371 5.54714L47.598 6.02376C47.9414 6.07395 48.113 6.09905 48.1925 6.18292C48.2616 6.25589 48.2941 6.35616 48.281 6.45581C48.2659 6.57034 48.1416 6.69141 47.893 6.93355L45.5343 9.23091C45.4608 9.30252 45.424 9.33833 45.4003 9.38093C45.3793 9.41866 45.3658 9.4601 45.3606 9.50296C45.3547 9.55137 45.3634 9.60196 45.3807 9.70312L45.9373 12.948C45.996 13.2903 46.0253 13.4614 45.9702 13.563C45.9222 13.6513 45.8369 13.7133 45.738 13.7316C45.6244 13.7527 45.4707 13.6719 45.1634 13.5102L42.2482 11.9772C42.1574 11.9294 42.112 11.9055 42.0641 11.8961C42.0218 11.8878 41.9782 11.8878 41.9358 11.8961C41.888 11.9055 41.8426 11.9294 41.7518 11.9772L38.8366 13.5102C38.5293 13.6719 38.3756 13.7527 38.262 13.7316C38.1631 13.7133 38.0778 13.6513 38.0298 13.563C37.9746 13.4614 38.004 13.2903 38.0627 12.948L38.6192 9.70312C38.6366 9.60196 38.6453 9.55137 38.6394 9.50296C38.6342 9.4601 38.6207 9.41866 38.5997 9.38093C38.576 9.33833 38.5392 9.30252 38.4657 9.2309L36.107 6.93355C35.8584 6.69141 35.7341 6.57034 35.719 6.45581C35.7058 6.35616 35.7383 6.25589 35.8075 6.18292C35.8869 6.09905 36.0586 6.07395 36.402 6.02376L39.6629 5.54714C39.7643 5.53232 39.815 5.52491 39.8591 5.50437C39.8982 5.48619 39.9334 5.4606 39.9628 5.42901C39.9959 5.39333 40.0186 5.34738 40.064 5.25548L41.5217 2.30217Z" fill="#FCC82C" stroke="#FCC82C" stroke-width="1.2" stroke-linecap="round" stroke-linejoin="round"/>
<path d="M58.5217 2.30217C58.6754 1.99088 58.7522 1.83523 58.8565 1.7855C58.9473 1.74224 59.0527 1.74224 59.1434 1.7855C59.2477 1.83523 59.3246 1.99088 59.4782 2.30217L60.936 5.25548C60.9814 5.34738 61.0041 5.39333 61.0372 5.42901C61.0666 5.4606 61.1018 5.48619 61.1409 5.50437C61.185 5.52491 61.2357 5.53232 61.3371 5.54714L64.598 6.02376C64.9414 6.07395 65.113 6.09905 65.1925 6.18292C65.2616 6.25589 65.2941 6.35616 65.281 6.45581C65.2659 6.57034 65.1416 6.69141 64.893 6.93355L62.5343 9.23091C62.4608 9.30252 62.424 9.33833 62.4003 9.38093C62.3793 9.41866 62.3658 9.4601 62.3606 9.50296C62.3547 9.55137 62.3634 9.60196 62.3807 9.70312L62.9373 12.948C62.996 13.2903 63.0253 13.4614 62.9702 13.563C62.9222 13.6513 62.8369 13.7133 62.738 13.7316C62.6244 13.7527 62.4707 13.6719 62.1634 13.5102L59.2482 11.9772C59.1574 11.9294 59.112 11.9055 59.0641 11.8961C59.0218 11.8878 58.9782 11.8878 58.9358 11.8961C58.888 11.9055 58.8426 11.9294 58.7518 11.9772L55.8366 13.5102C55.5293 13.6719 55.3756 13.7527 55.262 13.7316C55.1631 13.7133 55.0778 13.6513 55.0298 13.563C54.9746 13.4614 55.004 13.2903 55.0627 12.948L55.6192 9.70312C55.6366 9.60196 55.6453 9.55137 55.6394 9.50296C55.6342 9.4601 55.6207 9.41866 55.5997 9.38093C55.576 9.33833 55.5392 9.30252 55.4657 9.2309L53.107 6.93355C52.8584 6.69141 52.7341 6.57034 52.719 6.45581C52.7058 6.35616 52.7383 6.25589 52.8075 6.18292C52.8869 6.09905 53.0586 6.07395 53.402 6.02376L56.6629 5.54714C56.7643 5.53232 56.815 5.52491 56.8591 5.50437C56.8982 5.48619 56.9334 5.4606 56.9628 5.42901C56.9959 5.39333 57.0186 5.34738 57.064 5.25548L58.5217 2.30217Z" fill="#FCC82C" stroke="#FCC82C" stroke-width="1.2" stroke-linecap="round" stroke-linejoin="round"/>
<path d="M75.5217 2.30217C75.6754 1.99088 75.7522 1.83523 75.8565 1.7855C75.9473 1.74224 76.0527 1.74224 76.1434 1.7855C76.2477 1.83523 76.3246 1.99088 76.4782 2.30217L77.936 5.25548C77.9814 5.34738 78.0041 5.39333 78.0372 5.42901C78.0666 5.4606 78.1018 5.48619 78.1409 5.50437C78.185 5.52491 78.2357 5.53232 78.3371 5.54714L81.598 6.02376C81.9414 6.07395 82.113 6.09905 82.1925 6.18292C82.2616 6.25589 82.2941 6.35616 82.281 6.45581C82.2659 6.57034 82.1416 6.69141 81.893 6.93355L79.5343 9.23091C79.4608 9.30252 79.424 9.33833 79.4003 9.38093C79.3793 9.41866 79.3658 9.4601 79.3606 9.50296C79.3547 9.55137 79.3634 9.60196 79.3807 9.70312L79.9373 12.948C79.996 13.2903 80.0253 13.4614 79.9702 13.563C79.9222 13.6513 79.8369 13.7133 79.738 13.7316C79.6244 13.7527 79.4707 13.6719 79.1634 13.5102L76.2482 11.9772C76.1574 11.9294 76.112 11.9055 76.0641 11.8961C76.0218 11.8878 75.9782 11.8878 75.9358 11.8961C75.888 11.9055 75.8426 11.9294 75.7518 11.9772L72.8366 13.5102C72.5293 13.6719 72.3756 13.7527 72.262 13.7316C72.1631 13.7133 72.0778 13.6513 72.0298 13.563C71.9746 13.4614 72.004 13.2903 72.0627 12.948L72.6192 9.70312C72.6366 9.60196 72.6453 9.55137 72.6394 9.50296C72.6342 9.4601 72.6207 9.41866 72.5997 9.38093C72.576 9.33833 72.5392 9.30252 72.4657 9.2309L70.107 6.93355C69.8584 6.69141 69.7341 6.57034 69.719 6.45581C69.7058 6.35616 69.7383 6.25589 69.8075 6.18292C69.8869 6.09905 70.0586 6.07395 70.402 6.02376L73.6629 5.54714C73.7643 5.53232 73.815 5.52491 73.8591 5.50437C73.8982 5.48619 73.9334 5.4606 73.9628 5.42901C73.9959 5.39333 74.0186 5.34738 74.064 5.25548L75.5217 2.30217Z" fill="#FCC82C" stroke="#FCC82C" stroke-width="1.2" stroke-linecap="round" stroke-linejoin="round"/>
</svg>
