<svg width="95" height="28" viewBox="0 0 95 28" fill="none" xmlns="http://www.w3.org/2000/svg">
<path d="M36.0764 25.2992L36.1333 25.4031H36.2518H36.3997H36.5207L36.5769 25.296L43.2331 12.6085L43.3868 12.3156H43.056H39.7424H39.6118L39.5593 12.4352L36.4211 19.5832L33.0006 12.4294L32.9463 12.3156H32.8202H29.2997H28.962L29.1243 12.6117L36.0764 25.2992Z" fill="white" stroke="white" stroke-width="0.4"/>
<path d="M47.1615 12.694L47.1614 12.6941C46.0854 13.2818 45.241 14.0883 44.6304 15.1131C44.0188 16.1393 43.7146 17.2917 43.7146 18.5643C43.7146 19.933 44.0227 21.1354 44.646 22.1641C45.2662 23.1899 46.1125 23.9774 47.1809 24.5256C48.248 25.0731 49.4484 25.3442 50.7778 25.3442C52.1867 25.3442 53.4207 25.0479 54.4715 24.4475C55.5173 23.8501 56.3368 23.0382 56.9275 22.013L56.9276 22.0129C57.5183 20.9871 57.8119 19.8356 57.8119 18.5643C57.8119 17.2935 57.5227 16.1434 56.9425 15.117L56.9424 15.1169C56.3614 14.0914 55.5461 13.2839 54.4994 12.6953L54.4993 12.6952C53.4489 12.1054 52.2064 11.8142 50.8368 11.8142C49.4662 11.8142 48.2399 12.1058 47.1615 12.694ZM47.6111 20.5797L47.611 20.5795C47.3057 20.0157 47.1459 19.3862 47.1331 18.6855V18.5941C47.1331 17.8775 47.2929 17.2221 47.6124 16.6225L47.6125 16.6224C47.9323 16.0216 48.3627 15.546 48.9058 15.1914C49.4429 14.841 50.0552 14.6636 50.7487 14.6636C51.8187 14.6636 52.6855 15.0405 53.3662 15.793C54.0499 16.5497 54.3942 17.4796 54.3942 18.595C54.3942 19.7103 54.0499 20.6347 53.3671 21.3811L53.367 21.3811C52.6874 22.1246 51.8205 22.4964 50.7487 22.4964C50.0743 22.4964 49.4655 22.324 48.9166 21.9806C48.3649 21.6355 47.93 21.17 47.6111 20.5797Z" fill="white" stroke="white" stroke-width="0.4"/>
<path d="M62.8114 12.694L62.8112 12.6941C61.7353 13.2818 60.8909 14.0883 60.2802 15.1131C59.6687 16.1393 59.3644 17.2917 59.3644 18.5643C59.3644 19.933 59.6725 21.1354 60.2959 22.1641C60.916 23.1899 61.7624 23.9774 62.8308 24.5256C63.8978 25.0731 65.0983 25.3442 66.4277 25.3442C67.8366 25.3442 69.0705 25.0479 70.1214 24.4475C71.1672 23.8501 71.9867 23.0382 72.5774 22.013L72.5774 22.0129C73.1681 20.9871 73.4618 19.8356 73.4618 18.5643C73.4618 17.2935 73.1725 16.1434 72.5923 15.117L72.5922 15.1169C72.0112 14.0914 71.196 13.2839 70.1493 12.6953L70.1492 12.6952C69.0988 12.1054 67.8563 11.8142 66.4867 11.8142C65.1161 11.8142 63.8898 12.1058 62.8114 12.694ZM63.2609 20.5797L63.2608 20.5795C62.9424 19.9913 62.7822 19.3316 62.7822 18.5941C62.7822 17.8775 62.9419 17.2221 63.2615 16.6225L63.2615 16.6224C63.5814 16.0216 64.0118 15.546 64.5548 15.1914C65.092 14.841 65.7042 14.6636 66.3977 14.6636C67.4677 14.6636 68.3345 15.0405 69.0153 15.793C69.6989 16.5497 70.0433 17.4796 70.0433 18.595C70.0433 19.7103 69.699 20.6347 69.0161 21.3811L69.016 21.3811C68.3365 22.1246 67.4696 22.4964 66.3977 22.4964C65.7242 22.4964 65.1154 22.324 64.5665 21.9806C64.0148 21.6355 63.5798 21.17 63.2609 20.5797Z" fill="white" stroke="white" stroke-width="0.4"/>
<path d="M76.2793 1.72187H76.0793V1.92188V24.849V25.049H76.2793H79.2671H79.4671V24.849V1.92188V1.72187H79.2671H76.2793Z" fill="white" stroke="white" stroke-width="0.4"/>
<path d="M84.533 6.91523H84.333V7.11523V12.3447H82.3439H82.1439V12.5447V14.8756V15.0756H82.3439H84.333V24.8491V25.0491H84.533H87.5507H87.7507V24.8491V15.0756H90.8643H91.0643V14.8756V12.5447V12.3447H90.8643H87.7507V7.11523V6.91523H87.5507H84.533Z" fill="white" stroke="white" stroke-width="0.4"/>
<path d="M94.6195 23.3423C94.8714 22.2778 94.2103 21.2119 93.1441 20.9609C92.0779 20.7099 91.0087 21.3685 90.7568 22.433C90.5049 23.4975 91.166 24.5634 92.2322 24.8144C93.2984 25.0654 94.3676 24.4068 94.6195 23.3423Z" fill="#FCC72C" stroke="#FCC72C" stroke-width="0.4"/>
<path d="M18.5038 0.874058L18.7497 0.429004H18.2412H15.6789H15.502L15.4164 0.583925L14.385 2.45074H0.888672H0.368375L0.629035 2.90103L11.7151 22.0524L11.9725 22.4972L12.2333 22.0543L20.1794 8.55617L20.4456 8.10397H19.9209H14.5102L18.5038 0.874058ZM10.2045 10.9421H15.4759L11.9927 16.859L5.29599 5.28882H12.8185L9.94188 10.497L9.69607 10.9421H10.2045Z" fill="#FCC72C" stroke="#FCC72C" stroke-width="0.6"/>
<path d="M13.0274 24.007L12.9404 24.1573L13.0274 24.3076L14.3231 26.5457L14.5827 26.9942L14.8424 26.5457L28.5298 2.90078L28.7904 2.45049H28.2701H19.0782H18.9008L18.8153 2.60585L17.5836 4.84393L17.3389 5.28857H17.8465H23.8628L13.0274 24.007Z" fill="white" stroke="white" stroke-width="0.6"/>
</svg>
